<?xml version="1.0" encoding="UTF-8" standalone="no"?><!DOCTYPE svg PUBLIC "-//W3C//DTD SVG 1.1//EN" "http://www.w3.org/Graphics/SVG/1.1/DTD/svg11.dtd"><svg width="100%" height="100%" viewBox="0 0 1016 1016" version="1.1" xmlns="http://www.w3.org/2000/svg" xmlns:xlink="http://www.w3.org/1999/xlink" xml:space="preserve" xmlns:serif="http://www.serif.com/" style="fill-rule:evenodd;clip-rule:evenodd;stroke-linejoin:round;stroke-miterlimit:2;"><circle cx="351.125" cy="91.125" r="13" style="fill:#eeb42b;"/><circle cx="403.125" cy="91.125" r="13" style="fill:#eeb42b;"/><circle cx="507.125" cy="91.125" r="13" style="fill:#eeb42b;"/><circle cx="611.125" cy="91.125" r="13" style="fill:#eeb42b;"/><circle cx="637.125" cy="91.125" r="13" style="fill:#eeb42b;"/><circle cx="689.125" cy="91.125" r="13" style="fill:#eeb42b;"/><circle cx="715.125" cy="91.125" r="13" style="fill:#eeb42b;"/><circle cx="377.125" cy="117.125" r="13" style="fill:#eeb42b;"/><circle cx="455.125" cy="117.125" r="13" style="fill:#eeb42b;"/><circle cx="507.125" cy="117.125" r="13" style="fill:#eeb42b;"/><circle cx="533.125" cy="117.125" r="13" style="fill:#eeb42b;"/><circle cx="585.125" cy="117.125" r="13" style="fill:#eeb42b;"/><circle cx="611.125" cy="117.125" r="13" style="fill:#eeb42b;"/><circle cx="663.125" cy="117.125" r="13" style="fill:#eeb42b;"/><circle cx="689.125" cy="117.125" r="13" style="fill:#eeb42b;"/><circle cx="351.125" cy="143.125" r="13" style="fill:#eeb42b;"/><circle cx="377.125" cy="143.125" r="13" style="fill:#eeb42b;"/><circle cx="507.125" cy="143.125" r="13" style="fill:#eeb42b;"/><circle cx="585.125" cy="143.125" r="13" style="fill:#eeb42b;"/><circle cx="611.125" cy="143.125" r="13" style="fill:#eeb42b;"/><circle cx="689.125" cy="143.125" r="13" style="fill:#eeb42b;"/><circle cx="325.125" cy="169.125" r="13" style="fill:#eeb42b;"/><circle cx="403.125" cy="169.125" r="13" style="fill:#eeb42b;"/><circle cx="455.125" cy="169.125" r="13" style="fill:#eeb42b;"/><circle cx="481.125" cy="169.125" r="13" style="fill:#eeb42b;"/><circle cx="663.125" cy="169.125" r="13" style="fill:#eeb42b;"/><circle cx="689.125" cy="169.125" r="13" style="fill:#eeb42b;"/><circle cx="351.125" cy="195.125" r="13" style="fill:#eeb42b;"/><circle cx="377.125" cy="195.125" r="13" style="fill:#eeb42b;"/><circle cx="429.125" cy="195.125" r="13" style="fill:#eeb42b;"/><circle cx="481.125" cy="195.125" r="13" style="fill:#eeb42b;"/><circle cx="533.125" cy="195.125" r="13" style="fill:#eeb42b;"/><circle cx="559.125" cy="195.125" r="13" style="fill:#eeb42b;"/><circle cx="585.125" cy="195.125" r="13" style="fill:#eeb42b;"/><circle cx="611.125" cy="195.125" r="13" style="fill:#eeb42b;"/><circle cx="663.125" cy="195.125" r="13" style="fill:#eeb42b;"/><circle cx="689.125" cy="195.125" r="13" style="fill:#eeb42b;"/><circle cx="325.125" cy="221.125" r="13" style="fill:#eeb42b;"/><circle cx="455.125" cy="221.125" r="13" style="fill:#eeb42b;"/><circle cx="481.125" cy="221.125" r="13" style="fill:#eeb42b;"/><circle cx="715.125" cy="221.125" r="13" style="fill:#eeb42b;"/><circle cx="325.125" cy="273.125" r="13" style="fill:#eeb42b;"/><circle cx="377.125" cy="273.125" r="13" style="fill:#eeb42b;"/><circle cx="403.125" cy="273.125" r="13" style="fill:#eeb42b;"/><circle cx="455.125" cy="273.125" r="13" style="fill:#eeb42b;"/><circle cx="533.125" cy="273.125" r="13" style="fill:#eeb42b;"/><circle cx="611.125" cy="273.125" r="13" style="fill:#eeb42b;"/><circle cx="689.125" cy="273.125" r="13" style="fill:#eeb42b;"/><circle cx="143.125" cy="299.125" r="13" style="fill:#eeb42b;"/><circle cx="169.125" cy="299.125" r="13" style="fill:#eeb42b;"/><circle cx="325.125" cy="299.125" r="13" style="fill:#eeb42b;"/><circle cx="351.125" cy="299.125" r="13" style="fill:#eeb42b;"/><circle cx="403.125" cy="299.125" r="13" style="fill:#eeb42b;"/><circle cx="455.125" cy="299.125" r="13" style="fill:#eeb42b;"/><circle cx="481.125" cy="299.125" r="13" style="fill:#eeb42b;"/><circle cx="507.125" cy="299.125" r="13" style="fill:#eeb42b;"/><circle cx="533.125" cy="299.125" r="13" style="fill:#eeb42b;"/><circle cx="611.125" cy="299.125" r="13" style="fill:#eeb42b;"/><circle cx="741.125" cy="299.125" r="13" style="fill:#eeb42b;"/><circle cx="767.125" cy="299.125" r="13" style="fill:#eeb42b;"/><circle cx="819.125" cy="299.125" r="13" style="fill:#eeb42b;"/><circle cx="143.125" cy="325.125" r="13" style="fill:#eeb42b;"/><circle cx="169.125" cy="325.125" r="13" style="fill:#eeb42b;"/><circle cx="195.125" cy="325.125" r="13" style="fill:#eeb42b;"/><circle cx="221.125" cy="325.125" r="13" style="fill:#eeb42b;"/><circle cx="325.125" cy="325.125" r="13" style="fill:#eeb42b;"/><circle cx="403.125" cy="325.125" r="13" style="fill:#eeb42b;"/><circle cx="429.125" cy="325.125" r="13" style="fill:#eeb42b;"/><circle cx="481.125" cy="325.125" r="13" style="fill:#eeb42b;"/><circle cx="507.125" cy="325.125" r="13" style="fill:#eeb42b;"/><circle cx="585.125" cy="325.125" r="13" style="fill:#eeb42b;"/><circle cx="611.125" cy="325.125" r="13" style="fill:#eeb42b;"/><circle cx="741.125" cy="325.125" r="13" style="fill:#eeb42b;"/><circle cx="767.125" cy="325.125" r="13" style="fill:#eeb42b;"/><circle cx="897.125" cy="325.125" r="13" style="fill:#eeb42b;"/><circle cx="923.125" cy="325.125" r="13" style="fill:#eeb42b;"/><circle cx="117.125" cy="351.125" r="13" style="fill:#eeb42b;"/><circle cx="143.125" cy="351.125" r="13" style="fill:#eeb42b;"/><circle cx="195.125" cy="351.125" r="13" style="fill:#eeb42b;"/><circle cx="273.125" cy="351.125" r="13" style="fill:#eeb42b;"/><circle cx="325.125" cy="351.125" r="13" style="fill:#eeb42b;"/><circle cx="403.125" cy="351.125" r="13" style="fill:#eeb42b;"/><circle cx="429.125" cy="351.125" r="13" style="fill:#eeb42b;"/><circle cx="481.125" cy="351.125" r="13" style="fill:#eeb42b;"/><circle cx="637.125" cy="351.125" r="13" style="fill:#eeb42b;"/><circle cx="663.125" cy="351.125" r="13" style="fill:#eeb42b;"/><circle cx="689.125" cy="351.125" r="13" style="fill:#eeb42b;"/><circle cx="767.125" cy="351.125" r="13" style="fill:#eeb42b;"/><circle cx="897.125" cy="351.125" r="13" style="fill:#eeb42b;"/><circle cx="923.125" cy="351.125" r="13" style="fill:#eeb42b;"/><circle cx="195.125" cy="377.125" r="13" style="fill:#eeb42b;"/><circle cx="351.125" cy="377.125" r="13" style="fill:#eeb42b;"/><circle cx="429.125" cy="377.125" r="13" style="fill:#eeb42b;"/><circle cx="559.125" cy="377.125" r="13" style="fill:#eeb42b;"/><circle cx="637.125" cy="377.125" r="13" style="fill:#eeb42b;"/><circle cx="663.125" cy="377.125" r="13" style="fill:#eeb42b;"/><circle cx="689.125" cy="377.125" r="13" style="fill:#eeb42b;"/><circle cx="767.125" cy="377.125" r="13" style="fill:#eeb42b;"/><circle cx="793.125" cy="377.125" r="13" style="fill:#eeb42b;"/><circle cx="819.125" cy="377.125" r="13" style="fill:#eeb42b;"/><circle cx="845.125" cy="377.125" r="13" style="fill:#eeb42b;"/><circle cx="91.125" cy="403.125" r="13" style="fill:#eeb42b;"/><circle cx="169.125" cy="403.125" r="13" style="fill:#eeb42b;"/><circle cx="195.125" cy="403.125" r="13" style="fill:#eeb42b;"/><circle cx="221.125" cy="403.125" r="13" style="fill:#eeb42b;"/><circle cx="273.125" cy="403.125" r="13" style="fill:#eeb42b;"/><circle cx="351.125" cy="403.125" r="13" style="fill:#eeb42b;"/><circle cx="377.125" cy="403.125" r="13" style="fill:#eeb42b;"/><circle cx="637.125" cy="403.125" r="13" style="fill:#eeb42b;"/><circle cx="663.125" cy="403.125" r="13" style="fill:#eeb42b;"/><circle cx="715.125" cy="403.125" r="13" style="fill:#eeb42b;"/><circle cx="741.125" cy="403.125" r="13" style="fill:#eeb42b;"/><circle cx="793.125" cy="403.125" r="13" style="fill:#eeb42b;"/><circle cx="91.125" cy="429.125" r="13" style="fill:#eeb42b;"/><circle cx="143.125" cy="429.125" r="13" style="fill:#eeb42b;"/><circle cx="195.125" cy="429.125" r="13" style="fill:#eeb42b;"/><circle cx="273.125" cy="429.125" r="13" style="fill:#eeb42b;"/><circle cx="299.125" cy="429.125" r="13" style="fill:#eeb42b;"/><circle cx="637.125" cy="429.125" r="13" style="fill:#eeb42b;"/><circle cx="715.125" cy="429.125" r="13" style="fill:#eeb42b;"/><circle cx="793.125" cy="429.125" r="13" style="fill:#eeb42b;"/><circle cx="819.125" cy="429.125" r="13" style="fill:#eeb42b;"/><circle cx="871.125" cy="429.125" r="13" style="fill:#eeb42b;"/><circle cx="117.125" cy="455.125" r="13" style="fill:#eeb42b;"/><circle cx="169.125" cy="455.125" r="13" style="fill:#eeb42b;"/><circle cx="299.125" cy="455.125" r="13" style="fill:#eeb42b;"/><circle cx="351.125" cy="455.125" r="13" style="fill:#eeb42b;"/><circle cx="377.125" cy="455.125" r="13" style="fill:#eeb42b;"/><circle cx="637.125" cy="455.125" r="13" style="fill:#eeb42b;"/><circle cx="871.125" cy="455.125" r="13" style="fill:#eeb42b;"/><circle cx="143.125" cy="481.125" r="13" style="fill:#eeb42b;"/><circle cx="169.125" cy="481.125" r="13" style="fill:#eeb42b;"/><circle cx="195.125" cy="481.125" r="13" style="fill:#eeb42b;"/><circle cx="221.125" cy="481.125" r="13" style="fill:#eeb42b;"/><circle cx="273.125" cy="481.125" r="13" style="fill:#eeb42b;"/><circle cx="325.125" cy="481.125" r="13" style="fill:#eeb42b;"/><circle cx="351.125" cy="481.125" r="13" style="fill:#eeb42b;"/><circle cx="377.125" cy="481.125" r="13" style="fill:#eeb42b;"/><circle cx="637.125" cy="481.125" r="13" style="fill:#eeb42b;"/><circle cx="663.125" cy="481.125" r="13" style="fill:#eeb42b;"/><circle cx="741.125" cy="481.125" r="13" style="fill:#eeb42b;"/><circle cx="767.125" cy="481.125" r="13" style="fill:#eeb42b;"/><circle cx="819.125" cy="481.125" r="13" style="fill:#eeb42b;"/><circle cx="845.125" cy="481.125" r="13" style="fill:#eeb42b;"/><circle cx="923.125" cy="481.125" r="13" style="fill:#eeb42b;"/><circle cx="91.125" cy="507.125" r="13" style="fill:#eeb42b;"/><circle cx="117.125" cy="507.125" r="13" style="fill:#eeb42b;"/><circle cx="169.125" cy="507.125" r="13" style="fill:#eeb42b;"/><circle cx="195.125" cy="507.125" r="13" style="fill:#eeb42b;"/><circle cx="273.125" cy="507.125" r="13" style="fill:#eeb42b;"/><circle cx="377.125" cy="507.125" r="13" style="fill:#eeb42b;"/><circle cx="637.125" cy="507.125" r="13" style="fill:#eeb42b;"/><circle cx="689.125" cy="507.125" r="13" style="fill:#eeb42b;"/><circle cx="715.125" cy="507.125" r="13" style="fill:#eeb42b;"/><circle cx="741.125" cy="507.125" r="13" style="fill:#eeb42b;"/><circle cx="767.125" cy="507.125" r="13" style="fill:#eeb42b;"/><circle cx="793.125" cy="507.125" r="13" style="fill:#eeb42b;"/><circle cx="819.125" cy="507.125" r="13" style="fill:#eeb42b;"/><circle cx="845.125" cy="507.125" r="13" style="fill:#eeb42b;"/><circle cx="91.125" cy="533.125" r="13" style="fill:#eeb42b;"/><circle cx="117.125" cy="533.125" r="13" style="fill:#eeb42b;"/><circle cx="143.125" cy="533.125" r="13" style="fill:#eeb42b;"/><circle cx="195.125" cy="533.125" r="13" style="fill:#eeb42b;"/><circle cx="221.125" cy="533.125" r="13" style="fill:#eeb42b;"/><circle cx="273.125" cy="533.125" r="13" style="fill:#eeb42b;"/><circle cx="325.125" cy="533.125" r="13" style="fill:#eeb42b;"/><circle cx="663.125" cy="533.125" r="13" style="fill:#eeb42b;"/><circle cx="689.125" cy="533.125" r="13" style="fill:#eeb42b;"/><circle cx="741.125" cy="533.125" r="13" style="fill:#eeb42b;"/><circle cx="767.125" cy="533.125" r="13" style="fill:#eeb42b;"/><circle cx="793.125" cy="533.125" r="13" style="fill:#eeb42b;"/><circle cx="819.125" cy="533.125" r="13" style="fill:#eeb42b;"/><circle cx="871.125" cy="533.125" r="13" style="fill:#eeb42b;"/><circle cx="897.125" cy="533.125" r="13" style="fill:#eeb42b;"/><circle cx="91.125" cy="559.125" r="13" style="fill:#eeb42b;"/><circle cx="117.125" cy="559.125" r="13" style="fill:#eeb42b;"/><circle cx="143.125" cy="559.125" r="13" style="fill:#eeb42b;"/><circle cx="195.125" cy="559.125" r="13" style="fill:#eeb42b;"/><circle cx="221.125" cy="559.125" r="13" style="fill:#eeb42b;"/><circle cx="273.125" cy="559.125" r="13" style="fill:#eeb42b;"/><circle cx="299.125" cy="559.125" r="13" style="fill:#eeb42b;"/><circle cx="325.125" cy="559.125" r="13" style="fill:#eeb42b;"/><circle cx="351.125" cy="559.125" r="13" style="fill:#eeb42b;"/><circle cx="377.125" cy="559.125" r="13" style="fill:#eeb42b;"/><circle cx="819.125" cy="559.125" r="13" style="fill:#eeb42b;"/><circle cx="871.125" cy="559.125" r="13" style="fill:#eeb42b;"/><circle cx="143.125" cy="585.125" r="13" style="fill:#eeb42b;"/><circle cx="169.125" cy="585.125" r="13" style="fill:#eeb42b;"/><circle cx="299.125" cy="585.125" r="13" style="fill:#eeb42b;"/><circle cx="325.125" cy="585.125" r="13" style="fill:#eeb42b;"/><circle cx="351.125" cy="585.125" r="13" style="fill:#eeb42b;"/><circle cx="377.125" cy="585.125" r="13" style="fill:#eeb42b;"/><circle cx="663.125" cy="585.125" r="13" style="fill:#eeb42b;"/><circle cx="741.125" cy="585.125" r="13" style="fill:#eeb42b;"/><circle cx="767.125" cy="585.125" r="13" style="fill:#eeb42b;"/><circle cx="793.125" cy="585.125" r="13" style="fill:#eeb42b;"/><circle cx="819.125" cy="585.125" r="13" style="fill:#eeb42b;"/><circle cx="923.125" cy="585.125" r="13" style="fill:#eeb42b;"/><circle cx="91.125" cy="611.125" r="13" style="fill:#eeb42b;"/><circle cx="117.125" cy="611.125" r="13" style="fill:#eeb42b;"/><circle cx="143.125" cy="611.125" r="13" style="fill:#eeb42b;"/><circle cx="273.125" cy="611.125" r="13" style="fill:#eeb42b;"/><circle cx="299.125" cy="611.125" r="13" style="fill:#eeb42b;"/><circle cx="325.125" cy="611.125" r="13" style="fill:#eeb42b;"/><circle cx="377.125" cy="611.125" r="13" style="fill:#eeb42b;"/><circle cx="637.125" cy="611.125" r="13" style="fill:#eeb42b;"/><circle cx="663.125" cy="611.125" r="13" style="fill:#eeb42b;"/><circle cx="741.125" cy="611.125" r="13" style="fill:#eeb42b;"/><circle cx="845.125" cy="611.125" r="13" style="fill:#eeb42b;"/><circle cx="871.125" cy="611.125" r="13" style="fill:#eeb42b;"/><circle cx="923.125" cy="611.125" r="13" style="fill:#eeb42b;"/><circle cx="91.125" cy="637.125" r="13" style="fill:#eeb42b;"/><circle cx="117.125" cy="637.125" r="13" style="fill:#eeb42b;"/><circle cx="143.125" cy="637.125" r="13" style="fill:#eeb42b;"/><circle cx="325.125" cy="637.125" r="13" style="fill:#eeb42b;"/><circle cx="351.125" cy="637.125" r="13" style="fill:#eeb42b;"/><circle cx="377.125" cy="637.125" r="13" style="fill:#eeb42b;"/><circle cx="403.125" cy="637.125" r="13" style="fill:#eeb42b;"/><circle cx="455.125" cy="637.125" r="13" style="fill:#eeb42b;"/><circle cx="507.125" cy="637.125" r="13" style="fill:#eeb42b;"/><circle cx="559.125" cy="637.125" r="13" style="fill:#eeb42b;"/><circle cx="585.125" cy="637.125" r="13" style="fill:#eeb42b;"/><circle cx="611.125" cy="637.125" r="13" style="fill:#eeb42b;"/><circle cx="637.125" cy="637.125" r="13" style="fill:#eeb42b;"/><circle cx="741.125" cy="637.125" r="13" style="fill:#eeb42b;"/><circle cx="871.125" cy="637.125" r="13" style="fill:#eeb42b;"/><circle cx="923.125" cy="637.125" r="13" style="fill:#eeb42b;"/><circle cx="195.125" cy="663.125" r="13" style="fill:#eeb42b;"/><circle cx="221.125" cy="663.125" r="13" style="fill:#eeb42b;"/><circle cx="377.125" cy="663.125" r="13" style="fill:#eeb42b;"/><circle cx="403.125" cy="663.125" r="13" style="fill:#eeb42b;"/><circle cx="429.125" cy="663.125" r="13" style="fill:#eeb42b;"/><circle cx="455.125" cy="663.125" r="13" style="fill:#eeb42b;"/><circle cx="507.125" cy="663.125" r="13" style="fill:#eeb42b;"/><circle cx="767.125" cy="663.125" r="13" style="fill:#eeb42b;"/><circle cx="793.125" cy="663.125" r="13" style="fill:#eeb42b;"/><circle cx="845.125" cy="663.125" r="13" style="fill:#eeb42b;"/><circle cx="871.125" cy="663.125" r="13" style="fill:#eeb42b;"/><circle cx="897.125" cy="663.125" r="13" style="fill:#eeb42b;"/><circle cx="923.125" cy="663.125" r="13" style="fill:#eeb42b;"/><circle cx="117.125" cy="689.125" r="13" style="fill:#eeb42b;"/><circle cx="299.125" cy="689.125" r="13" style="fill:#eeb42b;"/><circle cx="325.125" cy="689.125" r="13" style="fill:#eeb42b;"/><circle cx="377.125" cy="689.125" r="13" style="fill:#eeb42b;"/><circle cx="403.125" cy="689.125" r="13" style="fill:#eeb42b;"/><circle cx="429.125" cy="689.125" r="13" style="fill:#eeb42b;"/><circle cx="533.125" cy="689.125" r="13" style="fill:#eeb42b;"/><circle cx="611.125" cy="689.125" r="13" style="fill:#eeb42b;"/><circle cx="689.125" cy="689.125" r="13" style="fill:#eeb42b;"/><circle cx="715.125" cy="689.125" r="13" style="fill:#eeb42b;"/><circle cx="741.125" cy="689.125" r="13" style="fill:#eeb42b;"/><circle cx="793.125" cy="689.125" r="13" style="fill:#eeb42b;"/><circle cx="897.125" cy="689.125" r="13" style="fill:#eeb42b;"/><circle cx="923.125" cy="689.125" r="13" style="fill:#eeb42b;"/><circle cx="91.125" cy="715.125" r="13" style="fill:#eeb42b;"/><circle cx="195.125" cy="715.125" r="13" style="fill:#eeb42b;"/><circle cx="221.125" cy="715.125" r="13" style="fill:#eeb42b;"/><circle cx="273.125" cy="715.125" r="13" style="fill:#eeb42b;"/><circle cx="299.125" cy="715.125" r="13" style="fill:#eeb42b;"/><circle cx="377.125" cy="715.125" r="13" style="fill:#eeb42b;"/><circle cx="403.125" cy="715.125" r="13" style="fill:#eeb42b;"/><circle cx="429.125" cy="715.125" r="13" style="fill:#eeb42b;"/><circle cx="559.125" cy="715.125" r="13" style="fill:#eeb42b;"/><circle cx="585.125" cy="715.125" r="13" style="fill:#eeb42b;"/><circle cx="637.125" cy="715.125" r="13" style="fill:#eeb42b;"/><circle cx="663.125" cy="715.125" r="13" style="fill:#eeb42b;"/><circle cx="689.125" cy="715.125" r="13" style="fill:#eeb42b;"/><circle cx="897.125" cy="715.125" r="13" style="fill:#eeb42b;"/><circle cx="923.125" cy="715.125" r="13" style="fill:#eeb42b;"/><circle cx="299.125" cy="741.125" r="13" style="fill:#eeb42b;"/><circle cx="403.125" cy="741.125" r="13" style="fill:#eeb42b;"/><circle cx="533.125" cy="741.125" r="13" style="fill:#eeb42b;"/><circle cx="585.125" cy="741.125" r="13" style="fill:#eeb42b;"/><circle cx="611.125" cy="741.125" r="13" style="fill:#eeb42b;"/><circle cx="689.125" cy="741.125" r="13" style="fill:#eeb42b;"/><circle cx="871.125" cy="741.125" r="13" style="fill:#eeb42b;"/><circle cx="897.125" cy="741.125" r="13" style="fill:#eeb42b;"/><circle cx="299.125" cy="767.125" r="13" style="fill:#eeb42b;"/><circle cx="403.125" cy="767.125" r="13" style="fill:#eeb42b;"/><circle cx="429.125" cy="767.125" r="13" style="fill:#eeb42b;"/><circle cx="455.125" cy="767.125" r="13" style="fill:#eeb42b;"/><circle cx="507.125" cy="767.125" r="13" style="fill:#eeb42b;"/><circle cx="663.125" cy="767.125" r="13" style="fill:#eeb42b;"/><circle cx="845.125" cy="767.125" r="13" style="fill:#eeb42b;"/><circle cx="871.125" cy="767.125" r="13" style="fill:#eeb42b;"/><circle cx="351.125" cy="793.125" r="13" style="fill:#eeb42b;"/><circle cx="377.125" cy="793.125" r="13" style="fill:#eeb42b;"/><circle cx="403.125" cy="793.125" r="13" style="fill:#eeb42b;"/><circle cx="429.125" cy="793.125" r="13" style="fill:#eeb42b;"/><circle cx="455.125" cy="793.125" r="13" style="fill:#eeb42b;"/><circle cx="533.125" cy="793.125" r="13" style="fill:#eeb42b;"/><circle cx="559.125" cy="793.125" r="13" style="fill:#eeb42b;"/><circle cx="637.125" cy="793.125" r="13" style="fill:#eeb42b;"/><circle cx="663.125" cy="793.125" r="13" style="fill:#eeb42b;"/><circle cx="689.125" cy="793.125" r="13" style="fill:#eeb42b;"/><circle cx="871.125" cy="793.125" r="13" style="fill:#eeb42b;"/><circle cx="897.125" cy="793.125" r="13" style="fill:#eeb42b;"/><circle cx="923.125" cy="793.125" r="13" style="fill:#eeb42b;"/><circle cx="325.125" cy="819.125" r="13" style="fill:#eeb42b;"/><circle cx="403.125" cy="819.125" r="13" style="fill:#eeb42b;"/><circle cx="455.125" cy="819.125" r="13" style="fill:#eeb42b;"/><circle cx="481.125" cy="819.125" r="13" style="fill:#eeb42b;"/><circle cx="507.125" cy="819.125" r="13" style="fill:#eeb42b;"/><circle cx="533.125" cy="819.125" r="13" style="fill:#eeb42b;"/><circle cx="585.125" cy="819.125" r="13" style="fill:#eeb42b;"/><circle cx="611.125" cy="819.125" r="13" style="fill:#eeb42b;"/><circle cx="689.125" cy="819.125" r="13" style="fill:#eeb42b;"/><circle cx="845.125" cy="819.125" r="13" style="fill:#eeb42b;"/><circle cx="871.125" cy="819.125" r="13" style="fill:#eeb42b;"/><circle cx="897.125" cy="819.125" r="13" style="fill:#eeb42b;"/><circle cx="299.125" cy="845.125" r="13" style="fill:#eeb42b;"/><circle cx="351.125" cy="845.125" r="13" style="fill:#eeb42b;"/><circle cx="377.125" cy="845.125" r="13" style="fill:#eeb42b;"/><circle cx="429.125" cy="845.125" r="13" style="fill:#eeb42b;"/><circle cx="455.125" cy="845.125" r="13" style="fill:#eeb42b;"/><circle cx="481.125" cy="845.125" r="13" style="fill:#eeb42b;"/><circle cx="533.125" cy="845.125" r="13" style="fill:#eeb42b;"/><circle cx="611.125" cy="845.125" r="13" style="fill:#eeb42b;"/><circle cx="637.125" cy="845.125" r="13" style="fill:#eeb42b;"/><circle cx="715.125" cy="845.125" r="13" style="fill:#eeb42b;"/><circle cx="793.125" cy="845.125" r="13" style="fill:#eeb42b;"/><circle cx="299.125" cy="871.125" r="13" style="fill:#eeb42b;"/><circle cx="481.125" cy="871.125" r="13" style="fill:#eeb42b;"/><circle cx="507.125" cy="871.125" r="13" style="fill:#eeb42b;"/><circle cx="559.125" cy="871.125" r="13" style="fill:#eeb42b;"/><circle cx="611.125" cy="871.125" r="13" style="fill:#eeb42b;"/><circle cx="663.125" cy="871.125" r="13" style="fill:#eeb42b;"/><circle cx="689.125" cy="871.125" r="13" style="fill:#eeb42b;"/><circle cx="715.125" cy="871.125" r="13" style="fill:#eeb42b;"/><circle cx="741.125" cy="871.125" r="13" style="fill:#eeb42b;"/><circle cx="767.125" cy="871.125" r="13" style="fill:#eeb42b;"/><circle cx="845.125" cy="871.125" r="13" style="fill:#eeb42b;"/><circle cx="871.125" cy="871.125" r="13" style="fill:#eeb42b;"/><circle cx="351.125" cy="897.125" r="13" style="fill:#eeb42b;"/><circle cx="377.125" cy="897.125" r="13" style="fill:#eeb42b;"/><circle cx="429.125" cy="897.125" r="13" style="fill:#eeb42b;"/><circle cx="559.125" cy="897.125" r="13" style="fill:#eeb42b;"/><circle cx="637.125" cy="897.125" r="13" style="fill:#eeb42b;"/><circle cx="689.125" cy="897.125" r="13" style="fill:#eeb42b;"/><circle cx="715.125" cy="897.125" r="13" style="fill:#eeb42b;"/><circle cx="741.125" cy="897.125" r="13" style="fill:#eeb42b;"/><circle cx="845.125" cy="897.125" r="13" style="fill:#eeb42b;"/><circle cx="923.125" cy="897.125" r="13" style="fill:#eeb42b;"/><circle cx="377.125" cy="923.125" r="13" style="fill:#eeb42b;"/><circle cx="507.125" cy="923.125" r="13" style="fill:#eeb42b;"/><circle cx="559.125" cy="923.125" r="13" style="fill:#eeb42b;"/><circle cx="689.125" cy="923.125" r="13" style="fill:#eeb42b;"/><circle cx="767.125" cy="923.125" r="13" style="fill:#eeb42b;"/><circle cx="793.125" cy="923.125" r="13" style="fill:#eeb42b;"/><circle cx="819.125" cy="923.125" r="13" style="fill:#eeb42b;"/><circle cx="845.125" cy="923.125" r="13" style="fill:#eeb42b;"/><g><path d="M123.625,78.125l91,0c24.961,0 45.5,20.539 45.5,45.5l0,91c0,24.961 -20.539,45.5 -45.5,45.5l-91,0c-24.961,0 -45.5,-20.539 -45.5,-45.5l0,-91c0,-24.961 20.539,-45.5 45.5,-45.5Zm0,26c-10.697,0 -19.5,8.803 -19.5,19.5l0,91c0,10.697 8.803,19.5 19.5,19.5l91,0c10.697,0 19.5,-8.803 19.5,-19.5l0,-91c0,-10.697 -8.803,-19.5 -19.5,-19.5l-91,0Z" style="fill:#eeb42b;fill-rule:nonzero;"/></g><g><path d="M799.625,78.125l91,0c24.961,0 45.5,20.539 45.5,45.5l0,91c0,24.961 -20.539,45.5 -45.5,45.5l-91,0c-24.961,0 -45.5,-20.539 -45.5,-45.5l0,-91c0,-24.961 20.539,-45.5 45.5,-45.5Zm0,26c-10.697,0 -19.5,8.803 -19.5,19.5l0,91c0,10.697 8.803,19.5 19.5,19.5l91,0c10.697,0 19.5,-8.803 19.5,-19.5l0,-91c0,-10.697 -8.803,-19.5 -19.5,-19.5l-91,0Z" style="fill:#eeb42b;fill-rule:nonzero;"/></g><g><path d="M123.625,754.125l91,0c24.961,0 45.5,20.539 45.5,45.5l0,91c0,24.961 -20.539,45.5 -45.5,45.5l-91,0c-24.961,0 -45.5,-20.539 -45.5,-45.5l0,-91c0,-24.961 20.539,-45.5 45.5,-45.5Zm0,26c-10.697,0 -19.5,8.803 -19.5,19.5l0,91c0,10.697 8.803,19.5 19.5,19.5l91,0c10.697,0 19.5,-8.803 19.5,-19.5l0,-91c0,-10.697 -8.803,-19.5 -19.5,-19.5l-91,0Z" style="fill:#eeb42b;fill-rule:nonzero;"/></g><g><path d="M208.125,149.625l0,39c0,10.762 -8.738,19.5 -19.5,19.5l-39,0c-10.762,0 -19.5,-8.738 -19.5,-19.5l0,-39c0,-10.762 8.738,-19.5 19.5,-19.5l39,0c10.762,0 19.5,8.738 19.5,19.5Z" style="fill:#eeb42b;"/></g><g><path d="M884.125,149.625l0,39c0,10.762 -8.738,19.5 -19.5,19.5l-39,0c-10.762,0 -19.5,-8.738 -19.5,-19.5l0,-39c0,-10.762 8.738,-19.5 19.5,-19.5l39,0c10.762,0 19.5,8.738 19.5,19.5Z" style="fill:#eeb42b;"/></g><g><path d="M208.125,825.625l0,39c0,10.762 -8.738,19.5 -19.5,19.5l-39,0c-10.762,0 -19.5,-8.738 -19.5,-19.5l0,-39c0,-10.762 8.738,-19.5 19.5,-19.5l39,0c10.762,0 19.5,8.738 19.5,19.5Z" style="fill:#eeb42b;"/></g><circle cx="299.125" cy="247.125" r="13" style="fill:#eeb42b;"/><circle cx="247.125" cy="299.125" r="13" style="fill:#eeb42b;"/><circle cx="351.125" cy="247.125" r="13" style="fill:#eeb42b;"/><circle cx="247.125" cy="351.125" r="13" style="fill:#eeb42b;"/><circle cx="403.125" cy="247.125" r="13" style="fill:#eeb42b;"/><circle cx="247.125" cy="403.125" r="13" style="fill:#eeb42b;"/><circle cx="455.125" cy="247.125" r="13" style="fill:#eeb42b;"/><circle cx="247.125" cy="455.125" r="13" style="fill:#eeb42b;"/><circle cx="507.125" cy="247.125" r="13" style="fill:#eeb42b;"/><circle cx="247.125" cy="507.125" r="13" style="fill:#eeb42b;"/><circle cx="559.125" cy="247.125" r="13" style="fill:#eeb42b;"/><circle cx="247.125" cy="559.125" r="13" style="fill:#eeb42b;"/><circle cx="611.125" cy="247.125" r="13" style="fill:#eeb42b;"/><circle cx="247.125" cy="611.125" r="13" style="fill:#eeb42b;"/><circle cx="663.125" cy="247.125" r="13" style="fill:#eeb42b;"/><circle cx="247.125" cy="663.125" r="13" style="fill:#eeb42b;"/><circle cx="715.125" cy="247.125" r="13" style="fill:#eeb42b;"/><circle cx="247.125" cy="715.125" r="13" style="fill:#eeb42b;"/><circle cx="715.125" cy="715.125" r="13" style="fill:#eeb42b;"/><circle cx="715.125" cy="741.125" r="13" style="fill:#eeb42b;"/><circle cx="715.125" cy="767.125" r="13" style="fill:#eeb42b;"/><circle cx="715.125" cy="793.125" r="13" style="fill:#eeb42b;"/><circle cx="819.125" cy="741.125" r="13" style="fill:#eeb42b;"/><circle cx="819.125" cy="767.125" r="13" style="fill:#eeb42b;"/><circle cx="819.125" cy="793.125" r="13" style="fill:#eeb42b;"/><circle cx="819.125" cy="819.125" r="13" style="fill:#eeb42b;"/><circle cx="741.125" cy="715.125" r="13" style="fill:#eeb42b;"/><circle cx="767.125" cy="715.125" r="13" style="fill:#eeb42b;"/><circle cx="793.125" cy="715.125" r="13" style="fill:#eeb42b;"/><circle cx="819.125" cy="715.125" r="13" style="fill:#eeb42b;"/><circle cx="715.125" cy="819.125" r="13" style="fill:#eeb42b;"/><circle cx="741.125" cy="819.125" r="13" style="fill:#eeb42b;"/><circle cx="767.125" cy="819.125" r="13" style="fill:#eeb42b;"/><circle cx="793.125" cy="819.125" r="13" style="fill:#eeb42b;"/><circle cx="767.125" cy="767.125" r="13" style="fill:#eeb42b;"/><g><path d="M463.936,477.386c0,-0.628 -0.103,-1.189 -0.308,-1.683c-0.19,-0.509 -0.545,-0.965 -1.067,-1.369c-0.506,-0.419 -1.225,-0.823 -2.157,-1.212c-0.916,-0.404 -2.102,-0.823 -3.556,-1.257c-1.612,-0.479 -3.113,-1.017 -4.504,-1.616c-1.391,-0.598 -2.615,-1.294 -3.674,-2.087c-1.043,-0.793 -1.857,-1.706 -2.441,-2.738c-0.585,-1.047 -0.877,-2.259 -0.877,-3.636c0,-1.347 0.3,-2.573 0.901,-3.681c0.616,-1.107 1.485,-2.057 2.607,-2.85c1.122,-0.808 2.441,-1.429 3.959,-1.863c1.533,-0.434 3.224,-0.651 5.073,-0.651c2.56,0 4.772,0.441 6.637,1.324c1.88,0.883 3.334,2.08 4.361,3.591c1.027,1.511 1.541,3.209 1.541,5.094l-6.495,0c0,-1.017 -0.229,-1.915 -0.687,-2.693c-0.442,-0.778 -1.122,-1.391 -2.038,-1.84c-0.901,-0.449 -2.039,-0.673 -3.413,-0.673c-1.327,0 -2.434,0.187 -3.318,0.561c-0.869,0.374 -1.525,0.883 -1.967,1.526c-0.427,0.643 -0.64,1.362 -0.64,2.154c0,0.598 0.15,1.137 0.45,1.616c0.3,0.464 0.751,0.905 1.351,1.324c0.6,0.404 1.343,0.785 2.228,1.145c0.901,0.344 1.944,0.688 3.129,1.032c1.896,0.539 3.556,1.137 4.978,1.795c1.438,0.658 2.631,1.406 3.579,2.244c0.964,0.838 1.683,1.78 2.157,2.828c0.49,1.047 0.735,2.237 0.735,3.568c0,1.406 -0.292,2.663 -0.877,3.77c-0.585,1.107 -1.422,2.05 -2.513,2.828c-1.09,0.778 -2.402,1.369 -3.935,1.773c-1.517,0.404 -3.216,0.606 -5.096,0.606c-1.675,0 -3.334,-0.209 -4.978,-0.628c-1.628,-0.434 -3.105,-1.077 -4.433,-1.93c-1.327,-0.868 -2.386,-1.96 -3.176,-3.277c-0.79,-1.332 -1.185,-2.888 -1.185,-4.668l6.542,0c0,1.032 0.174,1.915 0.521,2.648c0.363,0.718 0.869,1.309 1.517,1.773c0.664,0.449 1.438,0.778 2.323,0.987c0.885,0.209 1.841,0.314 2.868,0.314c1.327,0 2.418,-0.172 3.271,-0.516c0.869,-0.359 1.517,-0.853 1.944,-1.481c0.442,-0.628 0.664,-1.347 0.664,-2.154Z" style="fill:#eeb42b;fill-rule:nonzero;"/><path d="M495.699,475.119l6.518,0c-0.174,2.184 -0.814,4.122 -1.92,5.812c-1.106,1.676 -2.647,2.992 -4.622,3.95c-1.975,0.958 -4.369,1.436 -7.182,1.436c-2.165,0 -4.117,-0.359 -5.855,-1.077c-1.722,-0.733 -3.2,-1.773 -4.433,-3.119c-1.217,-1.361 -2.149,-2.992 -2.797,-4.892c-0.648,-1.915 -0.972,-4.062 -0.972,-6.441l0,-2.491c0,-2.379 0.332,-4.526 0.996,-6.441c0.664,-1.915 1.612,-3.546 2.844,-4.892c1.248,-1.361 2.742,-2.409 4.48,-3.142c1.754,-0.733 3.714,-1.1 5.878,-1.1c2.813,0 5.191,0.494 7.135,1.481c1.944,0.972 3.453,2.311 4.527,4.017c1.075,1.706 1.722,3.665 1.944,5.88l-6.519,0c-0.126,-1.376 -0.442,-2.543 -0.948,-3.501c-0.49,-0.958 -1.233,-1.683 -2.228,-2.177c-0.98,-0.509 -2.283,-0.763 -3.911,-0.763c-1.264,0 -2.378,0.224 -3.342,0.673c-0.948,0.449 -1.738,1.122 -2.37,2.02c-0.632,0.883 -1.106,1.99 -1.422,3.321c-0.316,1.317 -0.474,2.843 -0.474,4.578l0,2.536c0,1.661 0.142,3.149 0.427,4.466c0.284,1.317 0.727,2.431 1.327,3.344c0.6,0.913 1.375,1.608 2.323,2.087c0.948,0.479 2.078,0.718 3.39,0.718c1.596,0 2.892,-0.239 3.887,-0.718c1.011,-0.479 1.778,-1.182 2.299,-2.11c0.537,-0.928 0.877,-2.08 1.019,-3.456Z" style="fill:#eeb42b;fill-rule:nonzero;"/><path d="M520.991,458.153l-9.837,27.716l-6.898,0l12.895,-32.676l4.409,0l-0.569,4.96Zm8.225,27.716l-9.884,-27.716l-0.592,-4.96l4.433,0l12.966,32.676l-6.922,0Zm-0.45,-12.141l0,4.87l-18.513,0l0,-4.87l18.513,0Z" style="fill:#eeb42b;fill-rule:nonzero;"/><path d="M567.426,453.193l0,32.676l-6.543,0l-14.672,-22.666l0,22.666l-6.518,0l0,-32.676l6.518,0l14.72,22.689l0,-22.689l6.495,0Z" style="fill:#eeb42b;fill-rule:nonzero;"/><path d="M449.102,501.366l10.689,0l17.875,46.604l17.83,-46.604l10.734,0l-24.297,61.911l-8.578,0l-24.252,-61.911Zm-5.389,0l10.464,0l1.886,42.819l0,19.092l-12.351,0l0,-61.911Zm57.397,0l10.509,0l0,61.911l-12.351,0l0,-19.092l1.841,-42.819Z" style="fill:#eeb42b;fill-rule:nonzero;"/><path d="M567.535,554.093l0,9.184l-34.762,0l0,-9.184l34.762,0Zm-30.989,-52.727l0,61.911l-12.351,0l0,-61.911l12.351,0Zm26.453,25.556l0,8.972l-30.226,0l0,-8.972l30.226,0Zm4.401,-25.556l0,9.227l-34.627,0l0,-9.227l34.627,0Z" style="fill:#eeb42b;fill-rule:nonzero;"/><path d="M456.979,417.345l-39.8,0l0,0l-0,0l0,39.8l8.844,0l0,-30.956l30.956,0l0,-8.844Zm141.512,0l-39.801,0l0,8.844l30.956,0l0,30.956l8.845,0l0,-39.8Zm-39.801,172.466l30.956,0l0,-30.955l8.845,0l0,39.8l-39.801,0l0,-8.845Zm-101.711,8.845l-39.801,0l0,-39.8l8.844,0l0,30.955l30.956,0l0,8.845Z" style="fill:#eeb42b;"/></g></svg>