<?xml version="1.0" encoding="UTF-8" standalone="no"?><!DOCTYPE svg PUBLIC "-//W3C//DTD SVG 1.1//EN" "http://www.w3.org/Graphics/SVG/1.1/DTD/svg11.dtd"><svg width="100%" height="100%" viewBox="0 0 17 16" version="1.1" xmlns="http://www.w3.org/2000/svg" xmlns:xlink="http://www.w3.org/1999/xlink" xml:space="preserve" xmlns:serif="http://www.serif.com/" style="fill-rule:evenodd;clip-rule:evenodd;stroke-linejoin:round;stroke-miterlimit:2;"><g><path d="M15.445,4.69l-0.03,0l-2.679,1.567l-1.193,0.692l-2.428,1.397l-0.284,0.166c-0.696,0.401 -0.95,1.296 -0.569,2.004c0.264,0.477 0.769,0.775 1.315,0.775c0.261,0 0.518,-0.068 0.744,-0.197l0.221,-0.132l0.454,0.849c0.116,0.212 0.177,0.45 0.177,0.691c0,0.528 -0.29,1.015 -0.754,1.266l-2.602,1.414c-0.258,0.149 -0.551,0.228 -0.849,0.228c-0.932,0 -1.698,-0.767 -1.698,-1.698c0,-0.011 0,-0.022 0,-0.032l-0,-4.054c0.009,-0.088 0.009,-0.176 -0,-0.263l0,-3.137c-0.058,-0.773 -0.711,-1.378 -1.486,-1.378c-0.775,0 -1.427,0.605 -1.486,1.378l0,0.374l-0.849,0c-0.003,0 -0.006,0 -0.008,0c-0.79,0 -1.439,-0.65 -1.439,-1.439c0,-0 0,-2.972 0,-2.972c-0,-0.011 -0,-0.022 -0,-0.032c-0,-0.932 0.767,-1.698 1.698,-1.698c0.298,-0 0.591,0.079 0.849,0.228l1.995,1.087l0.734,0.399l0.849,0.471l2.721,1.49c0.226,0.129 0.481,0.197 0.741,0.197c0.817,0 1.49,-0.673 1.49,-1.49c0,-0.507 -0.259,-0.981 -0.686,-1.254l0.543,-0.887c0.259,-0.431 0.727,-0.695 1.229,-0.695c0.264,-0 0.524,0.073 0.749,0.211l2.547,1.545c0.516,0.305 0.834,0.862 0.834,1.462c0,0.607 -0.325,1.169 -0.851,1.472Z" style="fill:url(#_Radial1);fill-rule:nonzero;"/><path d="M3.796,10.23c-0.469,-0.011 -0.849,-0.401 -0.849,-0.87l0,-3.137c0,-0.476 0.392,-0.868 0.868,-0.868c0.476,0 0.868,0.392 0.868,0.868l0,3.137c0,0.007 0,0.015 0,0.022c0,0.466 -0.383,0.849 -0.849,0.849c-0.013,0 -0.026,-0 -0.038,-0.001Z" style="fill:url(#_Radial2);fill-rule:nonzero;"/><path d="M9.557,3.684c-0.148,0.002 -0.295,-0.034 -0.425,-0.106l-2.721,-1.486c-0.321,-0.129 -0.533,-0.442 -0.533,-0.788c0,-0.466 0.383,-0.849 0.849,-0.849c0.036,0 0.073,0.002 0.109,0.007c0.148,-0.001 0.294,0.036 0.425,0.106l2.717,1.49c0.28,0.146 0.455,0.437 0.455,0.752c0,0.159 -0.045,0.314 -0.129,0.449c-0.154,0.266 -0.44,0.429 -0.747,0.425Z" style="fill:url(#_Radial3);fill-rule:nonzero;"/><path d="M9.561,10.672c-0.023,0.002 -0.046,0.003 -0.069,0.003c-0.466,0 -0.849,-0.383 -0.849,-0.849c0,-0.331 0.193,-0.633 0.494,-0.771l2.717,-1.567c0.129,-0.075 0.275,-0.114 0.425,-0.115c0.023,-0.002 0.046,-0.003 0.069,-0.003c0.466,0 0.849,0.383 0.849,0.849c0,0.331 -0.193,0.633 -0.494,0.771l-2.717,1.567c-0.129,0.075 -0.275,0.114 -0.425,0.115Z" style="fill:url(#_Radial4);fill-rule:nonzero;"/></g><defs><radialGradient id="_Radial1" cx="0" cy="0" r="1" gradientUnits="userSpaceOnUse" gradientTransform="matrix(-16.296221,15.408094,-15.408094,-16.296221,16.296221,0)"><stop offset="0" style="stop-color:#c6a858;stop-opacity:1"/><stop offset="0.49" style="stop-color:#ece992;stop-opacity:1"/><stop offset="1" style="stop-color:#d6b257;stop-opacity:1"/></radialGradient><radialGradient id="_Radial2" cx="0" cy="0" r="1" gradientUnits="userSpaceOnUse" gradientTransform="matrix(-16.296221,15.408094,-15.408094,-16.296221,16.296221,0)"><stop offset="0" style="stop-color:#c6a858;stop-opacity:1"/><stop offset="0.49" style="stop-color:#ece992;stop-opacity:1"/><stop offset="1" style="stop-color:#d6b257;stop-opacity:1"/></radialGradient><radialGradient id="_Radial3" cx="0" cy="0" r="1" gradientUnits="userSpaceOnUse" gradientTransform="matrix(-16.296221,15.408094,-15.408094,-16.296221,16.296221,0)"><stop offset="0" style="stop-color:#c6a858;stop-opacity:1"/><stop offset="0.49" style="stop-color:#ece992;stop-opacity:1"/><stop offset="1" style="stop-color:#d6b257;stop-opacity:1"/></radialGradient><radialGradient id="_Radial4" cx="0" cy="0" r="1" gradientUnits="userSpaceOnUse" gradientTransform="matrix(-16.296221,15.408094,-15.408094,-16.296221,16.296221,0)"><stop offset="0" style="stop-color:#c6a858;stop-opacity:1"/><stop offset="0.49" style="stop-color:#ece992;stop-opacity:1"/><stop offset="1" style="stop-color:#d6b257;stop-opacity:1"/></radialGradient></defs></svg>