<?xml version="1.0" encoding="UTF-8" standalone="no"?><!DOCTYPE svg PUBLIC "-//W3C//DTD SVG 1.1//EN" "http://www.w3.org/Graphics/SVG/1.1/DTD/svg11.dtd"><svg width="100%" height="100%" viewBox="0 0 738 595" version="1.1" xmlns="http://www.w3.org/2000/svg" xmlns:xlink="http://www.w3.org/1999/xlink" xml:space="preserve" xmlns:serif="http://www.serif.com/" style="fill-rule:evenodd;clip-rule:evenodd;stroke-linejoin:round;stroke-miterlimit:2;"><g><g><g><g><g><g><path d="M273.394,246.485c17.075,4.303 32.57,12.703 50.171,22.247c2.426,1.328 4.463,2.449 4.463,2.449c2.243,1.259 4.051,2.289 5.585,3.159c4.509,2.586 5.882,3.365 9.544,4.646c8.08,2.815 16.869,4.257 26.116,4.28l-0.069,17.052c-11.719,-0.046 -22.934,-1.877 -33.303,-5.493c-5.47,-1.9 -8.148,-3.433 -12.978,-6.203c-2.312,-1.328 -5.31,-3.044 -9.636,-5.379c-17.899,-9.705 -34.333,-17.029 -46.28,-20.622c-3.571,-1.076 -11.65,-2.884 -19.524,-2.93l-47.47,0l-7.05,-17.052l54.268,0c3.159,0.137 7.301,0.435 12.131,1.099c0.595,0.092 7.141,1.007 14.031,2.747Z" style="fill:url(#_Linear1);fill-rule:nonzero;"/><path d="M464.947,246.485c-17.075,4.303 -32.57,12.703 -50.171,22.247c-2.426,1.328 -4.463,2.449 -4.463,2.449c-2.243,1.259 -4.051,2.289 -5.585,3.159c-4.509,2.586 -5.882,3.365 -9.544,4.646c-8.08,2.815 -16.869,4.257 -26.116,4.28l0.069,17.052c11.719,-0.046 22.934,-1.877 33.303,-5.493c5.47,-1.9 8.148,-3.433 12.978,-6.203c2.312,-1.328 5.31,-3.044 9.636,-5.379c17.899,-9.705 34.333,-17.029 46.28,-20.622c3.571,-1.076 11.65,-2.884 19.524,-2.93l47.47,0l7.05,-17.052l-54.268,0c-3.159,0.137 -7.301,0.435 -12.131,1.099c-0.572,0.092 -7.141,1.007 -14.031,2.747Z" style="fill:url(#_Linear2);fill-rule:nonzero;"/><path d="M321.986,233.598c10.552,10.368 21.263,20.76 32.044,31.311c-6.271,-0.893 -12.314,-2.335 -18.128,-4.349c-5.47,-1.923 -8.125,-3.456 -12.978,-6.226c-2.312,-1.305 -5.31,-3.021 -9.659,-5.356c-17.876,-9.705 -34.31,-17.029 -46.28,-20.622c-3.571,-1.076 -11.627,-2.861 -19.524,-2.93l-76.218,0l-7.027,-17.052l82.993,0c3.159,0.16 7.301,0.435 12.131,1.099c0.572,0.069 7.118,1.007 14.031,2.747c16.571,4.166 31.655,12.199 48.615,21.378Z" style="fill:url(#_Linear3);fill-rule:nonzero;"/><path d="M574.147,208.353l-7.05,17.052l-76.195,0c-7.919,0.046 -15.976,1.831 -19.547,2.93c-11.948,3.593 -28.382,10.941 -46.28,20.622c-4.326,2.335 -7.301,4.051 -9.659,5.356c-4.829,2.769 -7.507,4.303 -12.978,6.226c-4.852,1.694 -9.934,2.998 -15.129,3.914c10.712,-10.803 21.378,-21.538 31.952,-32.364c0.023,-0.023 0.023,-0.023 0.046,-0.046c15.793,-8.514 30.052,-15.885 45.662,-19.821c6.867,-1.74 13.435,-2.678 14.031,-2.747c4.807,-0.687 8.972,-0.961 12.108,-1.099l83.039,0l0,-0.023Z" style="fill:url(#_Linear4);fill-rule:nonzero;"/><path d="M273.394,280.771c17.075,4.303 32.57,12.703 50.171,22.247c2.426,1.328 4.463,2.449 4.463,2.449c2.243,1.259 4.051,2.289 5.585,3.159c4.509,2.586 5.882,3.365 9.544,4.646c8.08,2.815 16.869,4.257 26.116,4.28l-0.069,17.052c-11.719,-0.023 -22.934,-1.877 -33.303,-5.493c-5.47,-1.9 -8.148,-3.433 -12.978,-6.203c-2.312,-1.328 -5.31,-3.044 -9.636,-5.379c-17.899,-9.705 -34.333,-17.029 -46.28,-20.622c-3.571,-1.076 -11.65,-2.884 -19.524,-2.93l-24.445,0l-7.05,-17.052l31.243,0c3.159,0.137 7.301,0.435 12.131,1.099c0.595,0.069 7.141,1.007 14.031,2.747Z" style="fill:url(#_Linear5);fill-rule:nonzero;"/><path d="M464.947,280.771c-17.075,4.303 -32.57,12.703 -50.171,22.247c-2.426,1.328 -4.463,2.449 -4.463,2.449c-2.243,1.259 -4.051,2.289 -5.585,3.159c-4.509,2.586 -5.882,3.365 -9.544,4.646c-8.08,2.815 -16.869,4.257 -26.116,4.28l0.069,17.052c11.719,-0.023 22.934,-1.877 33.303,-5.493c5.47,-1.9 8.148,-3.433 12.978,-6.203c2.312,-1.328 5.31,-3.044 9.636,-5.379c17.899,-9.705 34.333,-17.029 46.28,-20.622c3.571,-1.076 11.65,-2.884 19.524,-2.93l24.445,0l7.05,-17.052l-31.243,0c-3.159,0.137 -7.301,0.435 -12.131,1.099c-0.572,0.069 -7.141,1.007 -14.031,2.747Z" style="fill:url(#_Linear6);fill-rule:nonzero;"/><path d="M426.014,100.182l0,-33.165c1.19,-1.076 1.923,-2.632 1.923,-4.326c0,-3.204 -2.518,-5.791 -5.608,-5.791c-3.09,0 -5.585,2.586 -5.585,5.791c0,1.717 0.71,3.273 1.9,4.326l0,30.899c-1.053,1.076 -2.106,2.152 -3.136,3.204c-8.881,9.11 -17.876,18.173 -26.894,27.26l0,-5.035l24.491,-25.589l0,-38.246l11.765,-12.52c1.602,0.092 3.159,-0.504 4.303,-1.717c2.106,-2.243 2.106,-5.837 0,-8.057c-1.03,-1.122 -2.495,-1.762 -3.983,-1.762c-1.648,-0.023 -2.998,0.641 -4.051,1.762c-1.122,1.19 -1.671,2.861 -1.534,4.486l-13.893,14.809l0,38.246l-24.491,25.589l0,15.495c-2.037,2.06 -4.074,4.097 -6.134,6.157l0,-23.071l28.244,-30.052l0,-38.338l-28.244,-30.03l0,-9.842c1.282,-1.122 2.06,-2.815 2.06,-4.601c0,-3.342 -2.609,-6.065 -5.837,-6.065c-3.227,0 -5.859,2.724 -5.859,6.065c0,1.808 0.778,3.479 2.06,4.601l0,12.932l28.244,30.052l0,32.158l-28.244,30.03l0,26.825c-2.609,-2.563 -5.196,-5.127 -7.805,-7.668l0,-20.92l31.883,-33.898l0,-24.17l-29.778,-31.677c0.137,-1.625 -0.412,-3.296 -1.534,-4.486c-2.129,-2.266 -5.928,-2.243 -8.011,-0.023c-2.106,2.22 -2.129,5.837 -0.023,8.08c1.144,1.213 2.724,1.808 4.326,1.717l27.626,29.412l0,18.128l-31.883,33.898l0,16.708c-0.824,-0.801 -1.648,-1.625 -2.472,-2.426l0,-26.344l17.578,-18.723c1.625,0.069 3.181,-0.504 4.326,-1.717c2.129,-2.266 2.129,-5.791 0,-8.057c-2.129,-2.266 -5.905,-2.266 -8.034,0c-1.144,1.213 -1.694,2.861 -1.534,4.509l-19.73,20.989l0,22.133c-0.961,-0.938 -1.946,-1.9 -2.907,-2.838l0,-38.887l-21.698,-23.071c0.137,-1.648 -0.389,-3.296 -1.556,-4.509c-1.03,-1.099 -2.495,-1.74 -3.983,-1.762c-1.511,-0.023 -2.998,0.641 -4.051,1.762c-2.083,2.22 -2.083,5.814 0,8.034c1.144,1.213 2.747,1.831 4.326,1.74l19.57,20.828l0,28.633c-2.472,-2.426 -4.944,-4.852 -7.393,-7.256l0,-12.657c1.19,-1.076 1.9,-2.632 1.9,-4.326c0,-3.204 -2.518,-5.791 -5.585,-5.791c-3.09,0 -5.608,2.586 -5.608,5.791c0,1.694 0.71,3.25 1.9,4.326l0,22.316l48.569,48.569l60.082,-58.846Z" style="fill:url(#_Radial7);fill-rule:nonzero;"/><path d="M174.517,567.31l-15.907,0c-0.824,0 -1.694,-0.137 -2.655,-0.435c-0.961,-0.275 -1.854,-0.755 -2.678,-1.419c-0.824,-0.664 -1.511,-1.511 -2.06,-2.541c-0.549,-1.053 -0.824,-2.335 -0.824,-3.845l0,-7.942c0,-0.549 0.069,-1.144 0.183,-1.762c0.137,-0.618 0.32,-1.236 0.595,-1.831c0.275,-0.618 0.618,-1.19 1.053,-1.74c0.435,-0.549 0.938,-1.053 1.556,-1.465c0.618,-0.412 1.305,-0.755 2.106,-1.007c0.801,-0.252 1.694,-0.389 2.701,-0.389l15.907,0l0,5.859l-15.907,0c-0.778,0 -1.35,0.206 -1.74,0.595c-0.389,0.389 -0.595,0.984 -0.595,1.808l0,7.896c0,0.778 0.206,1.35 0.618,1.762c0.412,0.412 1.007,0.618 1.785,0.618l15.862,0l0,5.837Z" style="fill:url(#_Linear8);fill-rule:nonzero;"/><path d="M204.409,559.231c0,0.801 -0.137,1.694 -0.435,2.632c-0.298,0.938 -0.755,1.808 -1.396,2.609c-0.641,0.801 -1.465,1.488 -2.518,2.014c-1.03,0.549 -2.289,0.801 -3.754,0.801l-10.597,0c-0.801,0 -1.694,-0.137 -2.632,-0.435c-0.938,-0.275 -1.808,-0.755 -2.609,-1.396c-0.801,-0.641 -1.488,-1.465 -2.014,-2.518c-0.549,-1.03 -0.801,-2.289 -0.801,-3.754c0,-0.801 0.137,-1.694 0.435,-2.632c0.298,-0.938 0.755,-1.831 1.396,-2.632c0.641,-0.801 1.465,-1.488 2.518,-2.014c1.03,-0.549 2.289,-0.801 3.754,-0.801l10.597,0l0,5.608l-10.597,0c-0.801,0 -1.419,0.252 -1.854,0.732c-0.435,0.481 -0.664,1.099 -0.664,1.808c0,0.778 0.252,1.373 0.755,1.785c0.504,0.435 1.099,0.641 1.785,0.641l10.552,0c0.801,0 1.419,-0.252 1.854,-0.732c0.435,-0.481 0.664,-1.076 0.664,-1.808l0,-8.194c0,-0.778 -0.229,-1.373 -0.71,-1.831c-0.481,-0.458 -1.076,-0.687 -1.785,-0.687l-12.886,0l0,-5.585l12.886,0c0.801,0 1.694,0.137 2.632,0.435c0.938,0.275 1.808,0.755 2.609,1.396c0.801,0.641 1.488,1.488 2.014,2.518c0.549,1.03 0.801,2.289 0.801,3.754l0,8.286Z" style="fill:url(#_Linear9);fill-rule:nonzero;"/><path d="M230.776,548.771l-13.207,0c-0.801,0 -1.396,0.206 -1.808,0.595c-0.412,0.389 -0.618,0.984 -0.618,1.762l0,16.182l-5.859,0l0,-16.182c0,-1.007 0.137,-1.923 0.389,-2.701c0.252,-0.801 0.595,-1.511 1.03,-2.106c0.435,-0.618 0.916,-1.122 1.488,-1.556c0.549,-0.435 1.144,-0.778 1.74,-1.053c0.618,-0.275 1.236,-0.481 1.854,-0.595c0.618,-0.137 1.213,-0.183 1.74,-0.183l13.252,0l0,5.837Z" style="fill:url(#_Linear10);fill-rule:nonzero;"/><path d="M240.595,537.899l-5.859,0l0,-5.31l5.859,0l0,5.31Zm0,29.412l-5.859,0l0,-24.399l5.859,0l0,24.399Z" style="fill:url(#_Linear11);fill-rule:nonzero;"/><path d="M273.303,567.31l-5.905,0l0,-13.55c0,-0.778 -0.137,-1.465 -0.389,-2.06c-0.275,-0.618 -0.618,-1.122 -1.076,-1.579c-0.458,-0.435 -0.984,-0.778 -1.602,-1.007c-0.618,-0.229 -1.259,-0.343 -1.968,-0.343l-10.277,0l0,18.54l-5.859,0l0,-21.492c0,-0.412 0.069,-0.778 0.229,-1.144c0.16,-0.343 0.366,-0.664 0.641,-0.916c0.275,-0.252 0.595,-0.481 0.938,-0.618c0.366,-0.16 0.755,-0.229 1.144,-0.229l13.229,0c0.732,0 1.511,0.092 2.335,0.252c0.824,0.16 1.625,0.435 2.449,0.801c0.801,0.366 1.579,0.847 2.312,1.396c0.732,0.572 1.373,1.259 1.946,2.06c0.572,0.801 1.007,1.74 1.35,2.792c0.32,1.053 0.504,2.243 0.504,3.571l0,13.527Z" style="fill:url(#_Linear12);fill-rule:nonzero;"/><path d="M304.957,569.668c0,1.007 -0.137,1.923 -0.389,2.724c-0.252,0.801 -0.595,1.511 -1.007,2.129c-0.412,0.618 -0.916,1.122 -1.465,1.556c-0.549,0.435 -1.144,0.778 -1.74,1.053c-0.618,0.275 -1.236,0.481 -1.854,0.595c-0.618,0.137 -1.213,0.183 -1.762,0.183l-10.597,0l0,-5.859l10.597,0c0.801,0 1.396,-0.206 1.785,-0.618c0.389,-0.412 0.595,-0.984 0.595,-1.762l0,-18.54c0,-0.778 -0.206,-1.35 -0.595,-1.762c-0.389,-0.389 -0.984,-0.595 -1.785,-0.595l-10.597,0c-0.732,0 -1.305,0.229 -1.717,0.664c-0.412,0.435 -0.641,1.007 -0.641,1.671l0,7.942c0,0.778 0.206,1.35 0.618,1.762c0.412,0.412 1.007,0.618 1.785,0.618l10.552,0l0,5.859l-10.597,0c-0.549,0 -1.144,-0.069 -1.762,-0.183c-0.618,-0.137 -1.236,-0.32 -1.831,-0.595c-0.618,-0.275 -1.19,-0.618 -1.74,-1.053c-0.549,-0.435 -1.053,-0.938 -1.465,-1.556c-0.412,-0.618 -0.755,-1.328 -1.007,-2.129c-0.252,-0.801 -0.389,-1.717 -0.389,-2.724l0,-7.942c0,-0.549 0.069,-1.144 0.183,-1.762c0.137,-0.618 0.32,-1.236 0.595,-1.831c0.275,-0.618 0.618,-1.19 1.053,-1.74c0.435,-0.549 0.938,-1.053 1.556,-1.465c0.618,-0.412 1.305,-0.755 2.106,-1.007c0.801,-0.252 1.694,-0.389 2.701,-0.389l10.597,0c0.549,0 1.144,0.069 1.762,0.183c0.618,0.137 1.236,0.32 1.854,0.595c0.618,0.275 1.19,0.618 1.74,1.053c0.549,0.435 1.053,0.938 1.465,1.556c0.412,0.618 0.755,1.305 1.007,2.106c0.252,0.801 0.389,1.694 0.389,2.701l0,18.562Z" style="fill:url(#_Linear13);fill-rule:nonzero;"/><path d="M350.345,559.231c0,0.801 -0.137,1.694 -0.435,2.632c-0.298,0.938 -0.755,1.808 -1.396,2.609c-0.641,0.801 -1.465,1.488 -2.518,2.014c-1.03,0.549 -2.289,0.801 -3.754,0.801l-10.597,0c-0.801,0 -1.694,-0.137 -2.632,-0.435c-0.938,-0.275 -1.808,-0.755 -2.609,-1.396c-0.801,-0.641 -1.488,-1.465 -2.014,-2.518c-0.549,-1.03 -0.801,-2.289 -0.801,-3.754c0,-0.801 0.137,-1.694 0.435,-2.632c0.298,-0.938 0.755,-1.831 1.396,-2.632c0.641,-0.801 1.465,-1.488 2.518,-2.014c1.03,-0.549 2.289,-0.801 3.754,-0.801l10.597,0l0,5.608l-10.597,0c-0.801,0 -1.419,0.252 -1.854,0.732c-0.435,0.481 -0.664,1.099 -0.664,1.808c0,0.778 0.252,1.373 0.755,1.785c0.504,0.435 1.099,0.641 1.785,0.641l10.552,0c0.801,0 1.419,-0.252 1.854,-0.732c0.435,-0.481 0.664,-1.076 0.664,-1.808l0,-8.194c0,-0.778 -0.229,-1.373 -0.71,-1.831c-0.481,-0.458 -1.076,-0.687 -1.785,-0.687l-12.886,0l0,-5.585l12.886,0c0.801,0 1.694,0.137 2.632,0.435c0.938,0.275 1.808,0.755 2.609,1.396c0.801,0.641 1.488,1.488 2.014,2.518c0.549,1.03 0.801,2.289 0.801,3.754l0,8.286Z" style="fill:url(#_Linear14);fill-rule:nonzero;"/><path d="M377.445,548.771l-10.254,0l0,18.54l-5.928,0l0,-18.54l-7.622,0l0,-5.859l7.622,0l0,-7.965l5.928,0l0,7.965l10.254,0l0,5.859Z" style="fill:url(#_Linear15);fill-rule:nonzero;"/><path d="M401.935,537.899l-5.859,0l0,-5.31l5.859,0l0,5.31Zm0,29.412l-5.859,0l0,-24.399l5.859,0l0,24.399Z" style="fill:url(#_Linear16);fill-rule:nonzero;"/><path d="M429.745,548.771l-10.254,0l0,18.54l-5.928,0l0,-18.54l-7.622,0l0,-5.859l7.622,0l0,-7.965l5.928,0l0,7.965l10.254,0l0,5.859Z" style="fill:url(#_Linear17);fill-rule:nonzero;"/><path d="M457.211,559.071c0,1.007 -0.137,1.923 -0.389,2.724c-0.252,0.801 -0.595,1.511 -1.007,2.129c-0.412,0.618 -0.916,1.122 -1.465,1.556c-0.549,0.435 -1.144,0.778 -1.74,1.053c-0.618,0.275 -1.236,0.481 -1.854,0.595c-0.618,0.137 -1.213,0.183 -1.762,0.183l-15.885,0l0,-5.859l15.839,0c0.801,0 1.396,-0.206 1.808,-0.618c0.412,-0.412 0.618,-0.984 0.618,-1.762c-0.069,-1.556 -0.87,-2.357 -2.38,-2.357l-9.087,0c-1.305,0 -2.403,-0.229 -3.296,-0.687c-0.916,-0.458 -1.648,-1.007 -2.197,-1.694c-0.572,-0.687 -0.961,-1.396 -1.213,-2.197c-0.252,-0.801 -0.366,-1.511 -0.366,-2.197c0,-1.305 0.229,-2.403 0.71,-3.319c0.458,-0.893 1.053,-1.625 1.762,-2.174c0.71,-0.549 1.465,-0.961 2.312,-1.213c0.824,-0.252 1.602,-0.366 2.335,-0.366l14.42,0l0,5.859l-14.374,0c-0.298,0 -0.549,0.046 -0.71,0.092c-0.183,0.069 -0.298,0.16 -0.389,0.275c-0.092,0.114 -0.137,0.229 -0.137,0.366c-0.023,0.137 -0.023,0.252 -0.023,0.366c0.023,0.229 0.069,0.435 0.137,0.572c0.069,0.137 0.16,0.229 0.275,0.298c0.114,0.069 0.229,0.092 0.389,0.092l9.499,0c1.511,0 2.792,0.275 3.845,0.801c1.053,0.549 1.9,1.213 2.541,2.037c0.641,0.824 1.122,1.717 1.419,2.678c0.206,1.053 0.366,1.946 0.366,2.769Z" style="fill:url(#_Linear18);fill-rule:nonzero;"/><path d="M503.262,559.071c0,0.549 -0.069,1.144 -0.183,1.762c-0.137,0.618 -0.32,1.236 -0.595,1.831c-0.275,0.618 -0.618,1.19 -1.053,1.74c-0.435,0.549 -0.938,1.053 -1.556,1.488c-0.618,0.435 -1.305,0.778 -2.106,1.03c-0.801,0.252 -1.694,0.389 -2.701,0.389l-10.597,0c-0.549,0 -1.144,-0.069 -1.762,-0.183c-0.618,-0.137 -1.236,-0.32 -1.831,-0.595c-0.618,-0.275 -1.19,-0.618 -1.74,-1.053c-0.549,-0.435 -1.053,-0.938 -1.488,-1.556c-0.435,-0.618 -0.778,-1.328 -1.03,-2.129c-0.252,-0.801 -0.389,-1.717 -0.389,-2.724l0,-26.482l5.859,0l0,26.482c0,0.732 0.229,1.305 0.687,1.717c0.458,0.435 1.007,0.641 1.694,0.641l10.597,0c0.732,0 1.305,-0.206 1.717,-0.664c0.412,-0.435 0.618,-1.007 0.618,-1.717l0,-7.942c0,-0.732 -0.229,-1.305 -0.664,-1.74c-0.435,-0.412 -1.007,-0.618 -1.694,-0.618l-10.597,0l0,-5.859l10.597,0c0.549,0 1.144,0.069 1.762,0.183c0.618,0.137 1.236,0.32 1.831,0.595c0.618,0.275 1.19,0.618 1.74,1.053c0.549,0.435 1.053,0.938 1.465,1.556c0.412,0.618 0.755,1.305 1.007,2.106c0.252,0.801 0.389,1.694 0.389,2.701l0,7.988l0.023,0Z" style="fill:url(#_Linear19);fill-rule:nonzero;"/><path d="M534.528,550.991c0,0.824 -0.137,1.694 -0.435,2.632c-0.275,0.938 -0.755,1.808 -1.396,2.609c-0.641,0.801 -1.488,1.488 -2.518,2.014c-1.03,0.549 -2.289,0.824 -3.754,0.824l-10.597,0l0,-5.585l10.597,0c0.801,0 1.419,-0.252 1.854,-0.732c0.435,-0.481 0.664,-1.099 0.664,-1.808c0,-0.778 -0.252,-1.373 -0.732,-1.808c-0.481,-0.435 -1.076,-0.664 -1.762,-0.664l-10.597,0c-0.801,0 -1.419,0.252 -1.854,0.732c-0.435,0.481 -0.664,1.099 -0.664,1.808l0,8.194c0,0.778 0.252,1.396 0.732,1.831c0.481,0.435 1.099,0.664 1.808,0.664l10.552,0l0,5.608l-10.597,0c-0.824,0 -1.694,-0.137 -2.632,-0.435c-0.938,-0.275 -1.808,-0.755 -2.609,-1.396c-0.801,-0.641 -1.488,-1.465 -2.014,-2.518c-0.549,-1.03 -0.824,-2.289 -0.824,-3.754l0,-8.24c0,-0.801 0.137,-1.694 0.435,-2.632c0.275,-0.938 0.755,-1.808 1.396,-2.609c0.641,-0.801 1.465,-1.488 2.495,-2.014c1.03,-0.549 2.289,-0.801 3.754,-0.801l10.597,0c0.801,0 1.694,0.137 2.632,0.435c0.938,0.275 1.808,0.755 2.609,1.396c0.801,0.641 1.488,1.488 2.014,2.518c0.572,1.007 0.847,2.243 0.847,3.731Z" style="fill:url(#_Linear20);fill-rule:nonzero;"/><path d="M562.062,559.071c0,1.007 -0.137,1.923 -0.389,2.724c-0.252,0.801 -0.595,1.511 -1.007,2.129c-0.412,0.618 -0.916,1.122 -1.465,1.556c-0.549,0.435 -1.144,0.778 -1.74,1.053c-0.618,0.275 -1.236,0.481 -1.854,0.595c-0.618,0.137 -1.213,0.183 -1.762,0.183l-15.885,0l0,-5.859l15.839,0c0.801,0 1.396,-0.206 1.808,-0.618c0.412,-0.412 0.618,-0.984 0.618,-1.762c-0.069,-1.556 -0.87,-2.357 -2.38,-2.357l-9.087,0c-1.305,0 -2.403,-0.229 -3.296,-0.687c-0.916,-0.458 -1.648,-1.007 -2.197,-1.694c-0.572,-0.687 -0.961,-1.396 -1.213,-2.197c-0.252,-0.801 -0.366,-1.511 -0.366,-2.197c0,-1.305 0.229,-2.403 0.71,-3.319c0.458,-0.893 1.053,-1.625 1.762,-2.174c0.71,-0.549 1.465,-0.961 2.312,-1.213c0.824,-0.252 1.602,-0.366 2.335,-0.366l14.42,0l0,5.859l-14.374,0c-0.298,0 -0.549,0.046 -0.71,0.092c-0.183,0.069 -0.298,0.16 -0.389,0.275c-0.092,0.114 -0.137,0.229 -0.137,0.366c-0.023,0.137 -0.023,0.252 -0.023,0.366c0.023,0.229 0.069,0.435 0.137,0.572c0.069,0.137 0.16,0.229 0.275,0.298c0.114,0.069 0.229,0.092 0.389,0.092l9.499,0c1.511,0 2.792,0.275 3.845,0.801c1.053,0.549 1.9,1.213 2.541,2.037c0.641,0.824 1.122,1.717 1.419,2.678c0.229,1.053 0.366,1.946 0.366,2.769Z" style="fill:url(#_Linear21);fill-rule:nonzero;"/><path d="M587.949,548.771l-10.254,0l0,18.54l-5.928,0l0,-18.54l-7.622,0l0,-5.859l7.622,0l0,-7.965l5.928,0l0,7.965l10.254,0l0,5.859Z" style="fill:url(#_Linear22);fill-rule:nonzero;"/><path d="M515.256,585.758c-14.603,2.792 -24.079,9.407 -24.17,9.476c-0.023,0.023 -0.092,0.023 -0.206,0c-0.046,-0.023 -0.137,-0.092 -0.16,-0.16c-1.442,-3.296 -4.852,-5.425 -8.698,-5.425l-225.679,0c-3.845,0 -7.278,2.152 -8.743,5.493c-0.023,0.069 -0.092,0.114 -0.16,0.137c-0.114,0 -0.16,0 -0.183,-0.046c-0.092,-0.069 -9.567,-6.683 -24.17,-9.476c-0.114,-0.023 -0.206,-0.137 -0.183,-0.252c0.023,-0.114 0.114,-0.206 0.229,-0.206l292.078,0c0.114,0 0.206,0.092 0.229,0.206c0,0.114 -0.069,0.229 -0.183,0.252Z" style="fill:url(#_Linear23);"/><path d="M334.255,333.849c0.183,0.046 0.343,0.137 0.526,0.183l-333.941,0c-0.252,0 -0.458,-0.206 -0.481,-0.435c-0.023,-0.252 0.16,-0.481 0.412,-0.526c30.876,-5.928 50.904,-19.89 51.11,-20.05c0.046,-0.023 0.206,-0.046 0.458,0.023c0.092,0.023 0.275,0.206 0.343,0.389c3.044,6.958 10.277,11.467 18.402,11.467l245.134,0c1.648,0.916 2.998,1.694 4.211,2.357c4.761,2.724 7.919,4.532 13.825,6.592Z" style="fill:url(#_Linear24);"/><path d="M737.982,333.598c-0.023,0.229 -0.229,0.435 -0.481,0.435l-333.941,0c0.183,-0.046 0.389,-0.092 0.549,-0.183c5.928,-2.06 9.064,-3.868 13.825,-6.592c1.19,-0.687 2.541,-1.465 4.189,-2.357l245.157,0c8.102,0 15.358,-4.555 18.471,-11.627c0.069,-0.16 0.183,-0.252 0.32,-0.298c0.229,0 0.32,0.023 0.412,0.069c0.206,0.16 20.256,14.122 51.133,20.05c0.206,0.023 0.389,0.252 0.366,0.504Z" style="fill:url(#_Linear25);"/><path d="M433.887,317.805l215.997,-0.298c0.16,0 0.275,-0.114 0.298,-0.275c0,-0.137 -0.114,-0.275 -0.275,-0.298c0,0 -142.091,-9.705 -185.853,-12.657c-8.492,2.998 -18.906,7.69 -30.167,13.527Z" style="fill:url(#_Linear26);"/><path d="M302.714,317.805l-215.997,-0.298c-0.16,0 -0.275,-0.114 -0.298,-0.275c0,-0.137 0.114,-0.275 0.275,-0.298c0,0 142.091,-9.705 185.853,-12.657c8.492,2.998 18.883,7.69 30.167,13.527Z" style="fill:url(#_Linear27);"/><path d="M451.374,189.607c-11.559,13.275 -24.079,25.749 -36.392,38.361c-14.649,15.015 -29.503,29.824 -44.472,44.953c-28.816,-28.519 -57.244,-55.275 -84.023,-83.565c-19.226,-20.279 -16.777,-52.529 3.296,-72.487c19.684,-19.592 50.606,-21.149 71.847,-3.525c2.541,2.106 4.898,4.417 7.896,7.118c2.563,-2.22 4.99,-4.372 7.439,-6.477c24.742,-21.149 64.042,-15.976 79.949,12.268c11.124,19.776 12.199,43.03 -5.539,63.355Z" style="fill:url(#_Radial28);fill-rule:nonzero;"/><path d="M80.354,377.635l0,-37.194l-35.156,0l0,37.194l-45.182,0l0,34.745l45.182,0l0,109.75l35.156,0l0,-109.75l60.677,0l0,-34.745l-60.677,0Z" style="fill:url(#_Linear29);fill-rule:nonzero;"/><path d="M314.044,403.224c-3.204,-6.088 -7.21,-11.055 -11.948,-14.832c-4.784,-3.777 -9.956,-6.523 -15.518,-8.217c-5.562,-1.671 -10.758,-2.518 -15.564,-2.518l-62.714,0c-8.72,0 -16.159,1.602 -22.247,4.807c-6.111,3.227 -11.055,7.21 -14.832,11.971c-3.799,4.784 -6.523,9.934 -8.217,15.495c-1.671,5.562 -2.541,10.78 -2.541,15.587l0,48.798c0,8.72 1.602,16.136 4.807,22.247c3.204,6.111 7.21,11.055 11.971,14.832c4.761,3.799 9.934,6.523 15.495,8.217c5.562,1.671 10.758,2.518 15.564,2.518l62.714,0l0,-33.142l-62.439,0c-4.28,0 -7.874,-1.305 -10.78,-3.891c-2.884,-2.586 -4.349,-6.18 -4.349,-10.826l0,-48.546c0,-4.28 1.305,-7.874 3.891,-10.758c2.586,-2.907 6.226,-4.349 10.964,-4.349l62.714,0c4.097,0 7.599,1.305 10.506,3.868c2.884,2.586 4.349,6.157 4.349,10.712c0,4.28 -1.305,7.874 -3.891,10.758c-2.563,2.907 -6.226,4.372 -10.964,4.372l-62.714,0l0,33.005l62.714,0c8.72,0 16.159,-1.602 22.247,-4.807c6.111,-3.227 11.078,-7.21 14.832,-11.971c3.799,-4.784 6.546,-9.934 8.217,-15.495c1.694,-5.562 2.541,-10.78 2.541,-15.564c0,-8.743 -1.602,-16.159 -4.807,-22.27Z" style="fill:url(#_Linear30);fill-rule:nonzero;"/><path d="M391.979,487.384c-4.005,0 -7.347,-1.282 -10.025,-3.822c-2.678,-2.518 -4.051,-5.951 -4.051,-10.208l0,-132.935l-34.722,0l0,132.935c0,8.995 1.602,16.617 4.807,22.774c3.227,6.18 7.278,11.261 12.177,15.106c4.898,3.914 10.162,6.661 15.839,8.354c5.653,1.694 10.964,2.541 15.976,2.541l15.495,0l0,-34.767l-15.495,0l0,0.023Z" style="fill:url(#_Linear31);fill-rule:nonzero;"/><path d="M493.58,377.635l0,-37.194l-35.156,0l0,37.194l-45.182,0l0,34.745l45.182,0l0,109.75l35.156,0l0,-109.75l60.7,0l0,-34.745l-60.7,0Z" style="fill:url(#_Linear32);fill-rule:nonzero;"/><path d="M577.672,340.418l0,181.711l34.767,0l0,-181.711l-34.767,0Zm157.884,69.832c-1.534,-4.738 -3.525,-8.881 -6.02,-12.497c-2.472,-3.616 -5.379,-6.683 -8.675,-9.224c-3.296,-2.541 -6.752,-4.623 -10.368,-6.203c-3.616,-1.602 -7.233,-2.792 -10.895,-3.548c-3.662,-0.778 -7.141,-1.144 -10.437,-1.144l-62.714,0l0,34.745l62.714,0c4.646,0 8.102,1.19 10.437,3.548c2.312,2.357 3.479,5.814 3.479,10.368l0,95.833l34.745,0l0,-95.833c0,-5.997 -0.732,-11.33 -2.266,-16.045Z" style="fill:url(#_Linear33);fill-rule:nonzero;"/></g></g></g></g></g></g><defs><linearGradient id="_Linear1" x1="0" y1="0" x2="1" y2="0" gradientUnits="userSpaceOnUse" gradientTransform="matrix(72.83986,-72.83986,72.83986,72.83986,246.440198,306.119444)"><stop offset="0" style="stop-color:#c4a657;stop-opacity:1"/><stop offset="0.49" style="stop-color:#ede992;stop-opacity:1"/><stop offset="1" style="stop-color:#d5b258;stop-opacity:1"/></linearGradient><linearGradient id="_Linear2" x1="0" y1="0" x2="1" y2="0" gradientUnits="userSpaceOnUse" gradientTransform="matrix(-72.839631,-72.83986,72.83986,-72.839631,491.905536,306.119444)"><stop offset="0" style="stop-color:#c4a657;stop-opacity:1"/><stop offset="0.49" style="stop-color:#ede992;stop-opacity:1"/><stop offset="1" style="stop-color:#d5b258;stop-opacity:1"/></linearGradient><linearGradient id="_Linear3" x1="0" y1="0" x2="1" y2="0" gradientUnits="userSpaceOnUse" gradientTransform="matrix(71.640739,-71.640968,71.640968,71.640739,220.798617,274.962688)"><stop offset="0" style="stop-color:#c4a657;stop-opacity:1"/><stop offset="0.49" style="stop-color:#ede992;stop-opacity:1"/><stop offset="1" style="stop-color:#d5b258;stop-opacity:1"/></linearGradient><linearGradient id="_Linear4" x1="0" y1="0" x2="1" y2="0" gradientUnits="userSpaceOnUse" gradientTransform="matrix(121.467287,-121.467058,121.467058,121.467287,422.382655,299.535612)"><stop offset="0" style="stop-color:#c4a657;stop-opacity:1"/><stop offset="0.49" style="stop-color:#ede992;stop-opacity:1"/><stop offset="1" style="stop-color:#d5b258;stop-opacity:1"/></linearGradient><linearGradient id="_Linear5" x1="0" y1="0" x2="1" y2="0" gradientUnits="userSpaceOnUse" gradientTransform="matrix(61.335035,-61.335263,61.335263,61.335035,263.697093,334.643354)"><stop offset="0" style="stop-color:#c4a657;stop-opacity:1"/><stop offset="0.49" style="stop-color:#ede992;stop-opacity:1"/><stop offset="1" style="stop-color:#d5b258;stop-opacity:1"/></linearGradient><linearGradient id="_Linear6" x1="0" y1="0" x2="1" y2="0" gradientUnits="userSpaceOnUse" gradientTransform="matrix(-61.335263,-61.335263,61.335263,-61.335263,474.64887,334.643354)"><stop offset="0" style="stop-color:#c4a657;stop-opacity:1"/><stop offset="0.49" style="stop-color:#ede992;stop-opacity:1"/><stop offset="1" style="stop-color:#d5b258;stop-opacity:1"/></linearGradient><radialGradient id="_Radial7" cx="0" cy="0" r="1" gradientUnits="userSpaceOnUse" gradientTransform="matrix(221.115117,0,0,221.115117,425.801257,3.964947)"><stop offset="0" style="stop-color:#c4a657;stop-opacity:1"/><stop offset="0.49" style="stop-color:#ede992;stop-opacity:1"/><stop offset="1" style="stop-color:#d5b258;stop-opacity:1"/></radialGradient><linearGradient id="_Linear8" x1="0" y1="0" x2="1" y2="0" gradientUnits="userSpaceOnUse" gradientTransform="matrix(-42.68012,-218.663318,218.663318,-42.68012,192.344746,704.658122)"><stop offset="0" style="stop-color:#c4a657;stop-opacity:1"/><stop offset="0.28" style="stop-color:#c4a657;stop-opacity:1"/><stop offset="0.34" style="stop-color:#c8ac5c;stop-opacity:1"/><stop offset="0.42" style="stop-color:#d2bd6b;stop-opacity:1"/><stop offset="0.51" style="stop-color:#e3d883;stop-opacity:1"/><stop offset="0.56" style="stop-color:#ede992;stop-opacity:1"/><stop offset="0.8" style="stop-color:#d5b258;stop-opacity:1"/><stop offset="1" style="stop-color:#d5b258;stop-opacity:1"/></linearGradient><linearGradient id="_Linear9" x1="0" y1="0" x2="1" y2="0" gradientUnits="userSpaceOnUse" gradientTransform="matrix(-42.68012,-218.663318,218.663318,-42.68012,219.199638,699.416463)"><stop offset="0" style="stop-color:#c4a657;stop-opacity:1"/><stop offset="0.28" style="stop-color:#c4a657;stop-opacity:1"/><stop offset="0.34" style="stop-color:#c8ac5c;stop-opacity:1"/><stop offset="0.42" style="stop-color:#d2bd6b;stop-opacity:1"/><stop offset="0.51" style="stop-color:#e3d883;stop-opacity:1"/><stop offset="0.56" style="stop-color:#ede992;stop-opacity:1"/><stop offset="0.8" style="stop-color:#d5b258;stop-opacity:1"/><stop offset="1" style="stop-color:#d5b258;stop-opacity:1"/></linearGradient><linearGradient id="_Linear10" x1="0" y1="0" x2="1" y2="0" gradientUnits="userSpaceOnUse" gradientTransform="matrix(-42.68012,-218.663089,218.663089,-42.68012,247.134402,693.963773)"><stop offset="0" style="stop-color:#c4a657;stop-opacity:1"/><stop offset="0.28" style="stop-color:#c4a657;stop-opacity:1"/><stop offset="0.34" style="stop-color:#c8ac5c;stop-opacity:1"/><stop offset="0.42" style="stop-color:#d2bd6b;stop-opacity:1"/><stop offset="0.51" style="stop-color:#e3d883;stop-opacity:1"/><stop offset="0.56" style="stop-color:#ede992;stop-opacity:1"/><stop offset="0.8" style="stop-color:#d5b258;stop-opacity:1"/><stop offset="1" style="stop-color:#d5b258;stop-opacity:1"/></linearGradient><linearGradient id="_Linear11" x1="0" y1="0" x2="1" y2="0" gradientUnits="userSpaceOnUse" gradientTransform="matrix(-42.68012,-218.663089,218.663089,-42.68012,265.088017,690.459568)"><stop offset="0" style="stop-color:#c4a657;stop-opacity:1"/><stop offset="0.28" style="stop-color:#c4a657;stop-opacity:1"/><stop offset="0.34" style="stop-color:#c8ac5c;stop-opacity:1"/><stop offset="0.42" style="stop-color:#d2bd6b;stop-opacity:1"/><stop offset="0.51" style="stop-color:#e3d883;stop-opacity:1"/><stop offset="0.56" style="stop-color:#ede992;stop-opacity:1"/><stop offset="0.8" style="stop-color:#d5b258;stop-opacity:1"/><stop offset="1" style="stop-color:#d5b258;stop-opacity:1"/></linearGradient><linearGradient id="_Linear12" x1="0" y1="0" x2="1" y2="0" gradientUnits="userSpaceOnUse" gradientTransform="matrix(-42.680349,-218.663089,218.663089,-42.680349,284.490922,686.672234)"><stop offset="0" style="stop-color:#c4a657;stop-opacity:1"/><stop offset="0.28" style="stop-color:#c4a657;stop-opacity:1"/><stop offset="0.34" style="stop-color:#c8ac5c;stop-opacity:1"/><stop offset="0.42" style="stop-color:#d2bd6b;stop-opacity:1"/><stop offset="0.51" style="stop-color:#e3d883;stop-opacity:1"/><stop offset="0.56" style="stop-color:#ede992;stop-opacity:1"/><stop offset="0.8" style="stop-color:#d5b258;stop-opacity:1"/><stop offset="1" style="stop-color:#d5b258;stop-opacity:1"/></linearGradient><linearGradient id="_Linear13" x1="0" y1="0" x2="1" y2="0" gradientUnits="userSpaceOnUse" gradientTransform="matrix(-42.680349,-218.663089,218.663089,-42.680349,315.920049,680.537701)"><stop offset="0" style="stop-color:#c4a657;stop-opacity:1"/><stop offset="0.28" style="stop-color:#c4a657;stop-opacity:1"/><stop offset="0.34" style="stop-color:#c8ac5c;stop-opacity:1"/><stop offset="0.42" style="stop-color:#d2bd6b;stop-opacity:1"/><stop offset="0.51" style="stop-color:#e3d883;stop-opacity:1"/><stop offset="0.56" style="stop-color:#ede992;stop-opacity:1"/><stop offset="0.8" style="stop-color:#d5b258;stop-opacity:1"/><stop offset="1" style="stop-color:#d5b258;stop-opacity:1"/></linearGradient><linearGradient id="_Linear14" x1="0" y1="0" x2="1" y2="0" gradientUnits="userSpaceOnUse" gradientTransform="matrix(-42.680349,-218.663318,218.663318,-42.680349,359.77045,671.978834)"><stop offset="0" style="stop-color:#c4a657;stop-opacity:1"/><stop offset="0.28" style="stop-color:#c4a657;stop-opacity:1"/><stop offset="0.34" style="stop-color:#c8ac5c;stop-opacity:1"/><stop offset="0.42" style="stop-color:#d2bd6b;stop-opacity:1"/><stop offset="0.51" style="stop-color:#e3d883;stop-opacity:1"/><stop offset="0.56" style="stop-color:#ede992;stop-opacity:1"/><stop offset="0.8" style="stop-color:#d5b258;stop-opacity:1"/><stop offset="1" style="stop-color:#d5b258;stop-opacity:1"/></linearGradient><linearGradient id="_Linear15" x1="0" y1="0" x2="1" y2="0" gradientUnits="userSpaceOnUse" gradientTransform="matrix(-42.680349,-218.663089,218.663089,-42.680349,389.043953,666.264988)"><stop offset="0" style="stop-color:#c4a657;stop-opacity:1"/><stop offset="0.28" style="stop-color:#c4a657;stop-opacity:1"/><stop offset="0.34" style="stop-color:#c8ac5c;stop-opacity:1"/><stop offset="0.42" style="stop-color:#d2bd6b;stop-opacity:1"/><stop offset="0.51" style="stop-color:#e3d883;stop-opacity:1"/><stop offset="0.56" style="stop-color:#ede992;stop-opacity:1"/><stop offset="0.8" style="stop-color:#d5b258;stop-opacity:1"/><stop offset="1" style="stop-color:#d5b258;stop-opacity:1"/></linearGradient><linearGradient id="_Linear16" x1="0" y1="0" x2="1" y2="0" gradientUnits="userSpaceOnUse" gradientTransform="matrix(-42.68012,-218.663318,218.663318,-42.68012,420.509244,660.12336)"><stop offset="0" style="stop-color:#c4a657;stop-opacity:1"/><stop offset="0.28" style="stop-color:#c4a657;stop-opacity:1"/><stop offset="0.34" style="stop-color:#c8ac5c;stop-opacity:1"/><stop offset="0.42" style="stop-color:#d2bd6b;stop-opacity:1"/><stop offset="0.51" style="stop-color:#e3d883;stop-opacity:1"/><stop offset="0.56" style="stop-color:#ede992;stop-opacity:1"/><stop offset="0.8" style="stop-color:#d5b258;stop-opacity:1"/><stop offset="1" style="stop-color:#d5b258;stop-opacity:1"/></linearGradient><linearGradient id="_Linear17" x1="0" y1="0" x2="1" y2="0" gradientUnits="userSpaceOnUse" gradientTransform="matrix(-42.680349,-218.663089,218.663089,-42.680349,439.432181,656.429868)"><stop offset="0" style="stop-color:#c4a657;stop-opacity:1"/><stop offset="0.28" style="stop-color:#c4a657;stop-opacity:1"/><stop offset="0.34" style="stop-color:#c8ac5c;stop-opacity:1"/><stop offset="0.42" style="stop-color:#d2bd6b;stop-opacity:1"/><stop offset="0.51" style="stop-color:#e3d883;stop-opacity:1"/><stop offset="0.56" style="stop-color:#ede992;stop-opacity:1"/><stop offset="0.8" style="stop-color:#d5b258;stop-opacity:1"/><stop offset="1" style="stop-color:#d5b258;stop-opacity:1"/></linearGradient><linearGradient id="_Linear18" x1="0" y1="0" x2="1" y2="0" gradientUnits="userSpaceOnUse" gradientTransform="matrix(-42.68012,-218.663089,218.663089,-42.68012,462.576185,651.912396)"><stop offset="0" style="stop-color:#c4a657;stop-opacity:1"/><stop offset="0.28" style="stop-color:#c4a657;stop-opacity:1"/><stop offset="0.34" style="stop-color:#c8ac5c;stop-opacity:1"/><stop offset="0.42" style="stop-color:#d2bd6b;stop-opacity:1"/><stop offset="0.51" style="stop-color:#e3d883;stop-opacity:1"/><stop offset="0.56" style="stop-color:#ede992;stop-opacity:1"/><stop offset="0.8" style="stop-color:#d5b258;stop-opacity:1"/><stop offset="1" style="stop-color:#d5b258;stop-opacity:1"/></linearGradient><linearGradient id="_Linear19" x1="0" y1="0" x2="1" y2="0" gradientUnits="userSpaceOnUse" gradientTransform="matrix(-42.68012,-218.663318,218.663318,-42.68012,506.940888,643.253049)"><stop offset="0" style="stop-color:#c4a657;stop-opacity:1"/><stop offset="0.28" style="stop-color:#c4a657;stop-opacity:1"/><stop offset="0.34" style="stop-color:#c8ac5c;stop-opacity:1"/><stop offset="0.42" style="stop-color:#d2bd6b;stop-opacity:1"/><stop offset="0.51" style="stop-color:#e3d883;stop-opacity:1"/><stop offset="0.56" style="stop-color:#ede992;stop-opacity:1"/><stop offset="0.8" style="stop-color:#d5b258;stop-opacity:1"/><stop offset="1" style="stop-color:#d5b258;stop-opacity:1"/></linearGradient><linearGradient id="_Linear20" x1="0" y1="0" x2="1" y2="0" gradientUnits="userSpaceOnUse" gradientTransform="matrix(-42.680349,-218.663089,218.663089,-42.680349,537.201336,637.346484)"><stop offset="0" style="stop-color:#c4a657;stop-opacity:1"/><stop offset="0.28" style="stop-color:#c4a657;stop-opacity:1"/><stop offset="0.34" style="stop-color:#c8ac5c;stop-opacity:1"/><stop offset="0.42" style="stop-color:#d2bd6b;stop-opacity:1"/><stop offset="0.51" style="stop-color:#e3d883;stop-opacity:1"/><stop offset="0.56" style="stop-color:#ede992;stop-opacity:1"/><stop offset="0.8" style="stop-color:#d5b258;stop-opacity:1"/><stop offset="1" style="stop-color:#d5b258;stop-opacity:1"/></linearGradient><linearGradient id="_Linear21" x1="0" y1="0" x2="1" y2="0" gradientUnits="userSpaceOnUse" gradientTransform="matrix(-42.68012,-218.663318,218.663318,-42.68012,563.588619,632.196149)"><stop offset="0" style="stop-color:#c4a657;stop-opacity:1"/><stop offset="0.28" style="stop-color:#c4a657;stop-opacity:1"/><stop offset="0.34" style="stop-color:#c8ac5c;stop-opacity:1"/><stop offset="0.42" style="stop-color:#d2bd6b;stop-opacity:1"/><stop offset="0.51" style="stop-color:#e3d883;stop-opacity:1"/><stop offset="0.56" style="stop-color:#ede992;stop-opacity:1"/><stop offset="0.8" style="stop-color:#d5b258;stop-opacity:1"/><stop offset="1" style="stop-color:#d5b258;stop-opacity:1"/></linearGradient><linearGradient id="_Linear22" x1="0" y1="0" x2="1" y2="0" gradientUnits="userSpaceOnUse" gradientTransform="matrix(-42.680349,-218.663318,218.663318,-42.680349,591.830544,626.683721)"><stop offset="0" style="stop-color:#c4a657;stop-opacity:1"/><stop offset="0.28" style="stop-color:#c4a657;stop-opacity:1"/><stop offset="0.34" style="stop-color:#c8ac5c;stop-opacity:1"/><stop offset="0.42" style="stop-color:#d2bd6b;stop-opacity:1"/><stop offset="0.51" style="stop-color:#e3d883;stop-opacity:1"/><stop offset="0.56" style="stop-color:#ede992;stop-opacity:1"/><stop offset="0.8" style="stop-color:#d5b258;stop-opacity:1"/><stop offset="1" style="stop-color:#d5b258;stop-opacity:1"/></linearGradient><linearGradient id="_Linear23" x1="0" y1="0" x2="1" y2="0" gradientUnits="userSpaceOnUse" gradientTransform="matrix(276.648644,-276.648644,276.648644,276.648644,266.827302,687.874559)"><stop offset="0" style="stop-color:#c4a657;stop-opacity:1"/><stop offset="0.49" style="stop-color:#ede992;stop-opacity:1"/><stop offset="1" style="stop-color:#d5b258;stop-opacity:1"/></linearGradient><linearGradient id="_Linear24" x1="0" y1="0" x2="1" y2="0" gradientUnits="userSpaceOnUse" gradientTransform="matrix(315.806935,-315.806935,315.806935,315.806935,50.64508,450.625678)"><stop offset="0" style="stop-color:#c4a657;stop-opacity:1"/><stop offset="0.49" style="stop-color:#ede992;stop-opacity:1"/><stop offset="1" style="stop-color:#d5b258;stop-opacity:1"/></linearGradient><linearGradient id="_Linear25" x1="0" y1="0" x2="1" y2="0" gradientUnits="userSpaceOnUse" gradientTransform="matrix(316.719264,-316.719264,316.719264,316.719264,453.6994,450.961908)"><stop offset="0" style="stop-color:#c4a657;stop-opacity:1"/><stop offset="0.49" style="stop-color:#ede992;stop-opacity:1"/><stop offset="1" style="stop-color:#d5b258;stop-opacity:1"/></linearGradient><linearGradient id="_Linear26" x1="0" y1="0" x2="1" y2="0" gradientUnits="userSpaceOnUse" gradientTransform="matrix(-829.805168,-829.805397,829.805397,-829.805168,856.674068,632.114209)"><stop offset="0" style="stop-color:#c4a657;stop-opacity:1"/><stop offset="0.49" style="stop-color:#ede992;stop-opacity:1"/><stop offset="1" style="stop-color:#d5b258;stop-opacity:1"/></linearGradient><linearGradient id="_Linear27" x1="0" y1="0" x2="1" y2="0" gradientUnits="userSpaceOnUse" gradientTransform="matrix(829.805397,-829.805397,829.805397,829.805397,-120.083183,632.114209)"><stop offset="0" style="stop-color:#c4a657;stop-opacity:1"/><stop offset="0.49" style="stop-color:#ede992;stop-opacity:1"/><stop offset="1" style="stop-color:#d5b258;stop-opacity:1"/></linearGradient><radialGradient id="_Radial28" cx="0" cy="0" r="1" gradientUnits="userSpaceOnUse" gradientTransform="matrix(221.115117,0,0,221.115117,425.801257,3.964947)"><stop offset="0" style="stop-color:#c4a657;stop-opacity:1"/><stop offset="0.49" style="stop-color:#ede992;stop-opacity:1"/><stop offset="1" style="stop-color:#d5b258;stop-opacity:1"/></radialGradient><linearGradient id="_Linear29" x1="0" y1="0" x2="1" y2="0" gradientUnits="userSpaceOnUse" gradientTransform="matrix(-227.906546,-486.200342,486.200342,-227.906546,266.271115,819.285457)"><stop offset="0" style="stop-color:#c4a657;stop-opacity:1"/><stop offset="0.28" style="stop-color:#c4a657;stop-opacity:1"/><stop offset="0.34" style="stop-color:#c8ac5c;stop-opacity:1"/><stop offset="0.42" style="stop-color:#d2bd6b;stop-opacity:1"/><stop offset="0.51" style="stop-color:#e3d883;stop-opacity:1"/><stop offset="0.56" style="stop-color:#ede992;stop-opacity:1"/><stop offset="0.8" style="stop-color:#d5b258;stop-opacity:1"/><stop offset="1" style="stop-color:#d5b258;stop-opacity:1"/></linearGradient><linearGradient id="_Linear30" x1="0" y1="0" x2="1" y2="0" gradientUnits="userSpaceOnUse" gradientTransform="matrix(-245.633796,-524.018749,524.018749,-245.633796,397.887322,787.482335)"><stop offset="0" style="stop-color:#c4a657;stop-opacity:1"/><stop offset="0.28" style="stop-color:#c4a657;stop-opacity:1"/><stop offset="0.34" style="stop-color:#c8ac5c;stop-opacity:1"/><stop offset="0.42" style="stop-color:#d2bd6b;stop-opacity:1"/><stop offset="0.51" style="stop-color:#e3d883;stop-opacity:1"/><stop offset="0.56" style="stop-color:#ede992;stop-opacity:1"/><stop offset="0.8" style="stop-color:#d5b258;stop-opacity:1"/><stop offset="1" style="stop-color:#d5b258;stop-opacity:1"/></linearGradient><linearGradient id="_Linear31" x1="0" y1="0" x2="1" y2="0" gradientUnits="userSpaceOnUse" gradientTransform="matrix(-217.994978,-465.056091,465.056091,-217.994978,499.851682,710.353657)"><stop offset="0" style="stop-color:#c4a657;stop-opacity:1"/><stop offset="0.28" style="stop-color:#c4a657;stop-opacity:1"/><stop offset="0.34" style="stop-color:#c8ac5c;stop-opacity:1"/><stop offset="0.42" style="stop-color:#d2bd6b;stop-opacity:1"/><stop offset="0.51" style="stop-color:#e3d883;stop-opacity:1"/><stop offset="0.56" style="stop-color:#ede992;stop-opacity:1"/><stop offset="0.8" style="stop-color:#d5b258;stop-opacity:1"/><stop offset="1" style="stop-color:#d5b258;stop-opacity:1"/></linearGradient><linearGradient id="_Linear32" x1="0" y1="0" x2="1" y2="0" gradientUnits="userSpaceOnUse" gradientTransform="matrix(-227.907004,-486.201715,486.201715,-227.907004,610.442886,671.936033)"><stop offset="0" style="stop-color:#c4a657;stop-opacity:1"/><stop offset="0.28" style="stop-color:#c4a657;stop-opacity:1"/><stop offset="0.34" style="stop-color:#c8ac5c;stop-opacity:1"/><stop offset="0.42" style="stop-color:#d2bd6b;stop-opacity:1"/><stop offset="0.51" style="stop-color:#e3d883;stop-opacity:1"/><stop offset="0.56" style="stop-color:#ede992;stop-opacity:1"/><stop offset="0.8" style="stop-color:#d5b258;stop-opacity:1"/><stop offset="1" style="stop-color:#d5b258;stop-opacity:1"/></linearGradient><linearGradient id="_Linear33" x1="0" y1="0" x2="1" y2="0" gradientUnits="userSpaceOnUse" gradientTransform="matrix(-231.722948,-494.342412,494.342412,-231.722948,731.376417,625.158213)"><stop offset="0" style="stop-color:#c4a657;stop-opacity:1"/><stop offset="0.28" style="stop-color:#c4a657;stop-opacity:1"/><stop offset="0.34" style="stop-color:#c8ac5c;stop-opacity:1"/><stop offset="0.42" style="stop-color:#d2bd6b;stop-opacity:1"/><stop offset="0.51" style="stop-color:#e3d883;stop-opacity:1"/><stop offset="0.56" style="stop-color:#ede992;stop-opacity:1"/><stop offset="0.8" style="stop-color:#d5b258;stop-opacity:1"/><stop offset="1" style="stop-color:#d5b258;stop-opacity:1"/></linearGradient></defs></svg>